<svg width="52" height="54" viewBox="0 0 52 54" fill="none" xmlns="http://www.w3.org/2000/svg">
<g clip-path="url(#clip0_407_10965)">
<path d="M36.998 25.4321C33.3634 25.4321 30.418 22.3528 30.418 18.553C30.418 17.4468 30.6667 16.4065 31.1071 15.4827C32.3224 12.9386 35.3593 8.77699 36.998 6.22391C38.6365 8.77699 41.6763 12.9386 42.8888 15.4827C43.3321 16.4065 43.5809 17.4468 43.5809 18.553C43.5809 22.3527 40.6326 25.4321 36.998 25.4321Z" stroke="white" stroke-width="1.83424" stroke-miterlimit="10" stroke-linecap="round" stroke-linejoin="round"/>
<path d="M38.374 25.2796C38.3854 25.4829 38.3883 25.6891 38.3883 25.8954C38.3883 33.0585 32.8349 38.8644 25.9832 38.8644C19.1315 38.8644 13.5781 33.0585 13.5781 25.8954C13.5781 23.8146 14.0471 21.8505 14.8792 20.1075C17.1669 15.3151 22.8948 7.4734 25.9831 2.65717C27.7389 5.39566 30.3527 9.1147 32.6975 12.6963" stroke="white" stroke-width="1.83424" stroke-miterlimit="10" stroke-linecap="round" stroke-linejoin="round"/>
<path d="M39.3606 36.3921C42.5376 37.4055 44.4879 38.7778 44.4879 40.2876C44.4879 43.4117 36.1321 45.9439 25.826 45.9439C15.52 45.9439 7.16406 43.4117 7.16406 40.2875C7.16406 38.7777 9.11434 37.4055 12.2943 36.392" stroke="white" stroke-width="1.83424" stroke-miterlimit="10" stroke-linecap="round" stroke-linejoin="round"/>
<path d="M42.4057 31.9522C47.4615 33.9882 50.6443 36.9389 50.6443 40.2245C50.6443 46.3652 39.5318 51.3428 25.8256 51.3428C12.1194 51.3428 1.00977 46.3652 1.00977 40.2245C1.00977 36.9389 4.1897 33.9881 9.24839 31.9522" stroke="white" stroke-width="1.83424" stroke-miterlimit="10" stroke-linecap="round" stroke-linejoin="round"/>
</g>
<defs>
<clipPath id="clip0_407_10965">
<rect width="51.6522" height="54" fill="white"/>
</clipPath>
</defs>
</svg>
