<svg width="46" height="46" viewBox="0 0 46 46" fill="none" xmlns="http://www.w3.org/2000/svg">
<g clip-path="url(#clip0_407_10990)">
<path d="M22.9999 21.0834C25.5606 21.0834 27.9679 20.0848 29.7753 18.2754C31.5847 16.4661 32.5833 14.0607 32.5833 11.5C32.5833 8.93936 31.5847 6.53395 29.76 4.7112L26.1337 1.23245C24.4048 -0.459969 21.5893 -0.458052 19.87 1.2267L16.2226 4.72461C14.4133 6.53395 13.4147 8.93936 13.4147 11.5C13.4147 14.0607 14.4133 16.4661 16.2226 18.2754C18.0319 20.0848 20.4393 21.0834 22.998 21.0834H22.9999ZM17.5643 6.09311L21.204 2.60286C21.6985 2.11986 22.3483 1.87836 22.998 1.87836C23.6478 1.87836 24.3033 2.12178 24.8016 2.60861L28.4203 6.08161C29.8693 7.53061 30.6666 9.45495 30.6666 11.5019C30.6666 13.5489 29.8693 15.4733 28.4203 16.9223C26.9732 18.3713 25.0469 19.1686 22.9999 19.1686C20.9529 19.1686 19.0286 18.3713 17.5796 16.9223C16.1306 15.4733 15.3333 13.5489 15.3333 11.5019C15.3333 9.45495 16.1306 7.53061 17.5643 6.09503V6.09311ZM45.9999 18.2084C45.9999 18.7374 45.5706 19.1667 45.0416 19.1667H35.4583C34.9293 19.1667 34.4999 18.7374 34.4999 18.2084C34.4999 17.6794 34.9293 17.25 35.4583 17.25H45.0416C45.5706 17.25 45.9999 17.6794 45.9999 18.2084ZM0.95826 19.1667C0.42926 19.1667 -7.29165e-05 18.7374 -7.29165e-05 18.2084C-7.29165e-05 17.6794 0.42926 17.25 0.95826 17.25H10.5416C11.0706 17.25 11.4999 17.6794 11.4999 18.2084C11.4999 18.7374 11.0706 19.1667 10.5416 19.1667H0.95826ZM13.4166 38.3334C13.4166 39.3914 12.5579 40.25 11.4999 40.25C10.4419 40.25 9.58326 39.3914 9.58326 38.3334C9.58326 37.2754 10.4419 36.4167 11.4999 36.4167C12.5579 36.4167 13.4166 37.2754 13.4166 38.3334ZM19.1666 32.5834C19.1666 33.6414 18.3079 34.5 17.2499 34.5C16.1919 34.5 15.3333 33.6414 15.3333 32.5834C15.3333 31.5254 16.1919 30.6667 17.2499 30.6667C18.3079 30.6667 19.1666 31.5254 19.1666 32.5834ZM7.66659 32.5834C7.66659 33.6414 6.80793 34.5 5.74993 34.5C4.69193 34.5 3.83326 33.6414 3.83326 32.5834C3.83326 31.5254 4.69193 30.6667 5.74993 30.6667C6.80793 30.6667 7.66659 31.5254 7.66659 32.5834ZM30.6666 32.5834C30.6666 33.6414 29.8079 34.5 28.7499 34.5C27.6919 34.5 26.8333 33.6414 26.8333 32.5834C26.8333 31.5254 27.6919 30.6667 28.7499 30.6667C29.8079 30.6667 30.6666 31.5254 30.6666 32.5834ZM42.1666 32.5834C42.1666 33.6414 41.3079 34.5 40.2499 34.5C39.1919 34.5 38.3333 33.6414 38.3333 32.5834C38.3333 31.5254 39.1919 30.6667 40.2499 30.6667C41.3079 30.6667 42.1666 31.5254 42.1666 32.5834ZM19.1666 44.0834C19.1666 45.1414 18.3079 46 17.2499 46C16.1919 46 15.3333 45.1414 15.3333 44.0834C15.3333 43.0254 16.1919 42.1667 17.2499 42.1667C18.3079 42.1667 19.1666 43.0254 19.1666 44.0834ZM7.66659 44.0834C7.66659 45.1414 6.80793 46 5.74993 46C4.69193 46 3.83326 45.1414 3.83326 44.0834C3.83326 43.0254 4.69193 42.1667 5.74993 42.1667C6.80793 42.1667 7.66659 43.0254 7.66659 44.0834ZM30.6666 44.0834C30.6666 45.1414 29.8079 46 28.7499 46C27.6919 46 26.8333 45.1414 26.8333 44.0834C26.8333 43.0254 27.6919 42.1667 28.7499 42.1667C29.8079 42.1667 30.6666 43.0254 30.6666 44.0834ZM42.1666 44.0834C42.1666 45.1414 41.3079 46 40.2499 46C39.1919 46 38.3333 45.1414 38.3333 44.0834C38.3333 43.0254 39.1919 42.1667 40.2499 42.1667C41.3079 42.1667 42.1666 43.0254 42.1666 44.0834ZM24.9166 38.3334C24.9166 39.3914 24.0579 40.25 22.9999 40.25C21.9419 40.25 21.0833 39.3914 21.0833 38.3334C21.0833 37.2754 21.9419 36.4167 22.9999 36.4167C24.0579 36.4167 24.9166 37.2754 24.9166 38.3334ZM36.4166 38.3334C36.4166 39.3914 35.5579 40.25 34.4999 40.25C33.4419 40.25 32.5833 39.3914 32.5833 38.3334C32.5833 37.2754 33.4419 36.4167 34.4999 36.4167C35.5579 36.4167 36.4166 37.2754 36.4166 38.3334ZM45.5802 25.1026C45.8274 25.2751 45.9999 25.5492 45.9999 25.875C45.9999 26.404 45.5706 26.8334 45.0416 26.8334C44.8365 26.8334 44.6583 26.7548 44.503 26.6474C44.503 26.6474 43.3108 25.8367 42.8087 25.4706C41.7928 24.7346 40.2691 24.7346 39.259 25.4706C38.0343 26.3619 36.5699 26.8334 35.0213 26.8334C33.4726 26.8334 32.0083 26.3619 30.7835 25.4687C29.7715 24.7327 28.2458 24.7327 27.2358 25.4687C24.7882 27.2531 21.2078 27.2531 18.7603 25.4687C17.7521 24.7346 16.2283 24.7327 15.2106 25.4687C12.7688 27.2531 9.18651 27.255 6.73701 25.4687C5.72884 24.7346 4.20509 24.7327 3.18734 25.4687C2.68326 25.8348 1.49301 26.6455 1.49301 26.6455C1.33776 26.7548 1.15951 26.8314 0.954427 26.8314C0.425427 26.8314 -0.00390625 26.4021 -0.00390625 25.8731C-0.00390625 25.5473 0.168594 25.2751 0.415844 25.1007C0.415844 25.1007 1.56393 24.2784 2.06034 23.9181C3.74318 22.6934 6.18693 22.6953 7.86209 23.9181C9.65609 25.2234 12.2934 25.2214 14.0798 23.9181C15.7626 22.6934 18.2044 22.6914 19.8834 23.9181C21.6774 25.2234 24.3128 25.2234 26.1049 23.9181C27.7801 22.6953 30.2238 22.6934 31.9067 23.9181C33.6968 25.2234 36.3342 25.2234 38.1263 23.9181C39.8014 22.6953 42.2452 22.6934 43.928 23.9181C44.4244 24.2784 45.5725 25.1007 45.5725 25.1007L45.5802 25.1026Z" fill="white"/>
</g>
<defs>
<clipPath id="clip0_407_10990">
<rect width="46" height="46" fill="white"/>
</clipPath>
</defs>
</svg>
