<svg width="47" height="46" viewBox="0 0 47 46" fill="none" xmlns="http://www.w3.org/2000/svg">
<path d="M19.7199 27.4419C18.6059 27.4419 17.578 26.9315 16.9096 26.0403C16.6724 25.724 16.7299 25.2712 17.0462 25.034C17.3624 24.7969 17.8152 24.8544 18.0524 25.1706C18.4549 25.7025 19.0587 26.0044 19.7199 26.0044C20.3812 26.0044 20.9849 25.7025 21.3874 25.1706C21.6246 24.8544 22.0774 24.7897 22.3937 25.034C22.7099 25.2712 22.7746 25.724 22.5302 26.0403C21.8546 26.9315 20.8268 27.4419 19.7199 27.4419ZM30.0124 25.1706C29.6099 25.7025 29.0062 26.0044 28.3449 26.0044C27.6837 26.0044 27.0799 25.7025 26.6774 25.1706C26.4402 24.8544 25.9874 24.7897 25.6712 25.034C25.3549 25.2712 25.2902 25.724 25.5346 26.0403C26.2102 26.9315 27.238 27.4419 28.3449 27.4419C29.4518 27.4419 30.4868 26.9315 31.1552 26.0403C31.3924 25.724 31.3349 25.2712 31.0187 25.034C30.7024 24.7969 30.2496 24.8544 30.0124 25.1706ZM25.628 32.5953C25.2687 32.9259 24.6721 33.12 24.0396 33.12C23.4071 33.12 22.8105 32.9259 22.4512 32.5953C22.1565 32.3294 21.7037 32.3509 21.4377 32.6456C21.1718 32.9403 21.1933 33.3931 21.488 33.659C22.1133 34.2269 23.0477 34.5503 24.0396 34.5503C25.0315 34.5503 25.9659 34.2269 26.5912 33.659C26.8858 33.3931 26.9074 32.9403 26.6415 32.6456C26.3755 32.3509 25.9227 32.3294 25.628 32.5953ZM42.7846 38.0865C42.7846 38.3812 42.5977 38.6472 42.3174 38.7478C40.0462 39.5959 39.0327 42.0469 39.0184 42.0684C38.9105 42.3415 38.6446 42.514 38.3499 42.514C38.0552 42.514 37.7965 42.3344 37.6815 42.0684C36.6896 39.6031 34.4112 38.7622 34.3896 38.755C34.1165 38.6544 33.9224 38.3956 33.9152 38.1081C33.9009 37.8134 34.0734 37.5403 34.3393 37.4253C36.934 36.2753 37.6384 34.2197 37.6671 34.1334C37.7605 33.8387 38.0337 33.6447 38.3427 33.6375C38.6302 33.6087 38.9249 33.8244 39.0255 34.1119C39.8305 36.3759 42.303 37.3965 42.3246 37.4037C42.5977 37.5115 42.7774 37.7847 42.7774 38.0794L42.7846 38.0865ZM40.5421 38.0578C39.8521 37.5978 38.9968 36.9006 38.3499 35.9231C37.9043 36.5844 37.2071 37.3894 36.1577 38.0722C36.8477 38.525 37.6959 39.2365 38.3715 40.2787C38.8315 39.5815 39.543 38.719 40.5421 38.0578ZM30.7887 38.525V43.125C30.7887 43.5203 30.4652 43.8437 30.0699 43.8437C29.6746 43.8437 29.3512 43.5203 29.3512 43.125V39.3587C27.7268 40.1565 25.9155 40.6094 24.0324 40.6094C23.9605 40.6094 23.8887 40.6094 23.8096 40.6094C21.8834 40.5734 20.0362 40.0487 18.3902 39.1431V43.125C18.3902 43.5203 18.0668 43.8437 17.6715 43.8437C17.2762 43.8437 16.9527 43.5203 16.9527 43.125V38.2159C15.2637 36.9437 13.8837 35.2259 12.9996 33.199C11.6052 34.5719 10.9655 36.1315 10.9583 36.1531C10.8505 36.4262 10.5846 36.6059 10.2899 36.6059C9.99523 36.6059 9.72929 36.4262 9.62148 36.1531C8.24866 32.739 5.05023 31.5459 5.02148 31.5387C4.74835 31.4381 4.55429 31.1794 4.5471 30.8847C4.53991 30.59 4.70523 30.324 4.97116 30.2019C6.99085 29.3034 8.18398 28.0169 8.85241 27.025C8.41398 25.5947 8.24866 24.5094 8.24148 24.459C6.92616 17.4944 11.5262 12.5422 11.7202 12.3337C12.4677 11.4137 13.3302 10.6375 14.243 9.97624C15.0408 5.49124 18.9868 2.14905 23.5652 2.14905H24.4996C29.0924 2.14905 33.0455 5.50561 33.829 10.005C34.749 10.6734 35.6259 11.4425 36.3805 12.3697C36.5387 12.535 41.1387 17.4872 39.8234 24.4806C39.7874 24.7034 38.8602 30.6834 35.4318 33.2565C35.3312 33.3356 35.2162 33.3715 35.094 33.3859C34.1596 35.499 32.6502 37.2672 30.7815 38.5178L30.7887 38.525ZM29.2793 9.17842C29.4302 9.50186 29.538 9.81811 29.5955 10.084C30.0843 13.3975 28.2515 14.9428 27.4465 15.4531C27.1949 15.6112 26.9074 15.7262 26.6055 15.8197C35.1658 19.0972 35.2449 24.6747 35.2234 25.3431L35.6187 31.1075C37.7462 28.5415 38.4074 24.3009 38.4074 24.2506C39.5933 17.9687 35.3455 13.3759 35.3024 13.3328C33.6349 11.2915 31.3637 10.005 29.2721 9.18561L29.2793 9.17842ZM16.0327 8.85499C19.9283 6.73467 24.0324 6.3753 24.2768 6.36092C25.5633 6.27467 26.5768 6.56936 27.3602 7.03655C28.7618 7.4103 30.4221 7.99967 32.0465 8.88374C30.9037 5.77874 27.9137 3.60092 24.4996 3.60092H23.5652C20.1655 3.60092 17.1827 5.77155 16.0327 8.86217V8.85499ZM9.65741 24.2219C9.65741 24.2219 9.7221 24.6387 9.86585 25.2425C9.98085 25.1562 10.1246 25.1059 10.2755 25.1059C10.5774 25.0987 10.8577 25.2928 10.9655 25.5803C11.3465 26.644 11.979 27.4994 12.6546 28.1822L12.8487 25.3359C12.8199 24.5597 12.9133 17.2644 25.9874 14.4972C26.2462 14.4397 26.4762 14.3534 26.6774 14.224C27.5471 13.6778 28.5102 12.5565 28.1796 10.3356C28.1652 10.2781 27.504 7.57561 24.3774 7.78405C24.3127 7.78405 16.7227 8.45967 12.7983 13.2825C12.7193 13.3687 8.47866 17.9615 9.65741 24.2147V24.2219ZM13.704 30.8272C12.669 30.1947 11.253 29.1022 10.2755 27.4706C9.67179 28.4553 8.60085 29.7778 6.83991 30.8415C7.86054 31.4597 9.26929 32.545 10.3043 34.2987C10.944 33.2565 12.0437 31.819 13.704 30.82V30.8272ZM34.2171 31.6753L33.7859 25.3934C33.7859 25.3934 33.7859 25.3287 33.7859 25.2928C33.8002 25.0556 33.9799 19.3344 24.0324 16.4665C14.0993 19.3272 14.2862 25.0412 14.2933 25.3V25.3934L14.0202 29.3106C14.8684 29.8928 15.5512 30.1731 15.5655 30.1803C15.8387 30.2881 16.0184 30.5612 16.0184 30.8559C16.0184 31.1506 15.8315 31.4165 15.5512 31.5244C15.0408 31.7184 14.5809 31.97 14.164 32.2503C15.774 36.3328 19.5905 39.1 23.8384 39.179H24.0324C28.6827 39.179 32.8299 36.1244 34.2171 31.6825V31.6753Z" fill="white"/>
</svg>
