<svg width="47" height="46" viewBox="0 0 47 46" fill="none" xmlns="http://www.w3.org/2000/svg">
<path d="M39.1452 39.1L37.2046 34.9313C37.2046 34.9313 38.2108 32.5594 37.9233 31.5531C37.5639 30.0438 37.1327 27.3125 35.9827 24.2938C34.7608 21.1313 34.0421 19.8375 32.1733 19.8375C31.6702 19.8375 25.0577 21.3469 24.8421 21.3469C24.0514 21.3469 23.4764 20.9875 23.2608 20.4844C22.1827 18.1125 20.1702 13.8719 20.1702 13.8719C20.1702 13.8719 19.2358 12.4344 18.0139 12.4344C17.8702 12.4344 17.6546 12.4344 17.4389 12.5063C15.9296 13.0094 16.4327 15.1656 16.4327 15.1656L21.9671 31.05C21.9671 31.05 21.0327 30.9063 19.8108 30.9063C18.5889 30.9063 17.0796 31.05 15.6421 31.5531C12.7671 32.5594 12.5514 33.7813 12.9108 34.7875C13.0546 35.2906 13.5577 35.4344 14.2046 35.4344C21.9671 34.9313 28.2202 37.8781 28.4358 38.0938C28.7233 38.3813 30.5921 42.4781 30.5921 42.4781" stroke="white" stroke-width="1.4375" stroke-miterlimit="10" stroke-linecap="round" stroke-linejoin="round"/>
<path d="M15.3551 20.0531C13.3426 19.0469 12.0488 16.9625 12.0488 14.5906C12.0488 11.2125 14.7801 8.40939 18.2301 8.40939C21.6801 8.40939 24.4113 11.1406 24.4113 14.5906C24.4113 15.3094 24.2676 16.0281 24.052 16.7469" stroke="white" stroke-width="1.4375" stroke-miterlimit="10" stroke-linecap="round" stroke-linejoin="round"/>
<path d="M17.368 25.3C11.8336 24.8688 7.44922 20.2688 7.44922 14.5906C7.44922 8.69688 12.2648 3.88126 18.1586 3.88126C24.0523 3.88126 28.9398 8.62501 28.9398 14.5906C28.9398 15.7406 28.7961 16.8188 28.4367 17.825" stroke="white" stroke-width="1.4375" stroke-miterlimit="10" stroke-linecap="round" stroke-linejoin="round"/>
</svg>
