<svg width="152" height="152" viewBox="0 0 152 152" fill="none" xmlns="http://www.w3.org/2000/svg">
<g clip-path="url(#clip0_376_9527)">
<path d="M152 76C152 55.7831 143.866 36.8128 129.527 22.4734C115.188 8.13437 96.2175 0 76 0C58.7219 0 42.4231 5.99688 29.1531 16.5956C26.8375 18.3769 24.6109 20.3359 22.4734 22.4734C20.3359 24.6115 18.3769 26.8381 16.5956 29.1531C5.99688 42.4237 0 58.7219 0 76C0 96.2175 8.13437 115.188 22.4734 129.527C36.8125 143.865 55.7825 152 76 152C93.1891 152 109.488 146.003 122.758 135.405C125.163 133.713 127.389 131.664 129.527 129.527C131.664 127.389 133.712 125.162 135.404 122.758C146.003 109.488 152 93.1891 152 76ZM29.3313 41.8894L110.111 122.758C100.314 129.972 88.469 133.891 76 133.891C60.5031 133.891 45.9859 127.834 35.0315 116.969C24.1656 106.014 18.1094 91.4969 18.1094 76C18.1094 63.5315 22.0281 51.6862 29.3313 41.8894ZM133.891 76C133.891 88.469 129.972 100.314 122.758 110.111L41.8888 29.3313C51.6862 22.0281 63.531 18.1094 76 18.1094C91.4969 18.1094 106.014 24.1656 116.968 35.0315C127.834 45.9859 133.891 60.5031 133.891 76Z" fill="#E80000"/>
<path d="M22.4727 22.4734L129.526 129.527C131.663 127.389 133.711 125.163 135.404 122.758C146.002 109.488 151.999 93.1891 151.999 76C151.999 55.7831 143.865 36.8128 129.526 22.4734C115.187 8.13438 96.2167 0 75.9992 0C58.7211 0 42.4224 5.99688 29.1523 16.5956C26.8364 18.3769 24.6099 20.3359 22.4727 22.4734ZM41.888 29.3313C51.6855 22.0281 63.5302 18.1094 75.9992 18.1094C91.4961 18.1094 106.013 24.1656 116.968 35.0316C127.834 45.9859 133.89 60.5031 133.89 76C133.89 88.4691 129.971 100.314 122.757 110.111L41.888 29.3313Z" fill="#FF3636"/>
</g>
<defs>
<clipPath id="clip0_376_9527">
<rect width="152" height="152" fill="white"/>
</clipPath>
</defs>
</svg>
