<svg width="128" height="128" viewBox="0 0 128 128" fill="none" xmlns="http://www.w3.org/2000/svg">
<path d="M71.1158 34H56.8868C55.6873 34 54.7148 34.9724 54.7148 36.172V37.063C54.7148 38.2626 55.6873 39.235 56.8868 39.235H71.1158C72.3154 39.235 73.2878 38.2626 73.2878 37.063V36.172C73.2878 34.9724 72.3154 34 71.1158 34Z" stroke="#272343" stroke-width="3" stroke-linecap="round" stroke-linejoin="round"/>
<path d="M36.4043 102.169L33.8848 100.467L35.2637 98.4248L42.8623 103.558L41.4824 105.6L38.9102 103.862L34.2529 110.757L31.7461 109.064L36.4043 102.169Z" fill="#272343"/>
<path d="M49.124 113.061L45.0313 111.492L44.373 113.211L48.9443 114.962L48.0742 117.232L40.6797 114.399L44.5361 104.331L51.707 107.078L50.8369 109.349L46.4902 107.684L45.9004 109.222L49.9941 110.79L49.124 113.061Z" fill="#272343"/>
<path d="M53.1816 115.387C54.073 115.991 55.0861 116.391 56.1494 116.561C57.1474 116.7 57.6992 116.454 57.7744 115.915C57.8378 115.456 57.3896 115.087 56.1416 114.541C54.3906 113.779 53.0166 112.635 53.2753 110.782C53.5449 108.85 55.4863 107.667 58.2587 108.055C59.3808 108.18 60.4638 108.541 61.4375 109.112L60.4287 111.361C59.6483 110.886 58.7806 110.573 57.8769 110.439C56.9902 110.315 56.4433 110.53 56.3789 110.989C56.2998 111.56 56.9541 111.845 58.2861 112.483C60.2676 113.438 61.1103 114.573 60.8848 116.188C60.6348 117.978 58.9951 119.429 55.5898 118.953C54.3945 118.791 53.2471 118.377 52.2227 117.74L53.1816 115.387Z" fill="#272343"/>
<path d="M66.6699 111.02L63.6406 111.286L63.4238 108.831L72.5605 108.026L72.7773 110.482L69.6836 110.754L70.4141 119.046L67.4004 119.312L66.6699 111.02Z" fill="#272343"/>
<path d="M83.3867 111.461L79.2227 112.824L79.7949 114.572L84.4453 113.05L85.2012 115.359L77.6787 117.822L74.3262 107.579L81.6211 105.191L82.377 107.501L77.9541 108.948L78.4668 110.514L82.6309 109.151L83.3867 111.461Z" fill="#272343"/>
<path d="M83.7344 104.509C84.7 103.686 85.7238 102.935 86.7979 102.26C88.1503 101.24 89.7764 100.648 91.4678 100.559C92.2782 100.548 93.0768 100.753 93.7813 101.154C94.4857 101.555 95.0706 102.136 95.4756 102.838C95.9701 103.518 96.2924 104.307 96.415 105.139C96.5376 105.971 96.4569 106.82 96.1797 107.613C95.347 109.406 93.9683 110.888 92.2412 111.849C91.3502 112.442 90.4148 112.966 89.4434 113.415L83.7344 104.509ZM90.8232 109.964C91.0351 109.861 91.2391 109.743 91.4336 109.61C93.3105 108.445 94.1094 106.697 92.8398 104.717C91.6826 102.911 89.9189 102.978 88.2754 104.031C87.9737 104.216 87.6905 104.429 87.4297 104.668L90.8232 109.964Z" fill="#272343"/>
<path d="M29.973 34.291C29.7106 35.3057 29.2503 36.2585 28.6185 37.0947C26.098 40.6601 22.9213 40.8047 20.557 39.1338C17.5004 36.9736 17.5531 33.4072 19.5931 30.5205C20.1683 29.6335 20.9277 28.8808 21.8197 28.3135L23.3666 30.1709C22.6892 30.6065 22.1039 31.1709 21.6439 31.832C20.6 33.3076 20.474 35.1777 22.224 36.414C23.7396 37.4853 25.5267 37.2011 26.8099 35.3857C27.2576 34.7624 27.596 34.0676 27.8109 33.331L29.973 34.291Z" fill="#272343"/>
<path d="M24.5781 24.9277L26.8389 22.9199L32.3193 29.0928L35.8008 26.0029L37.4785 27.8926L31.7363 32.9902L24.5781 24.9277Z" fill="#272343"/>
<path d="M36.2627 16.0186L41.9189 25.2031L39.3438 26.7891L33.6875 17.6045L36.2627 16.0186Z" fill="#272343"/>
<path d="M44.0684 23.7588L40.3965 13.6182L43.9629 12.3272L46.6943 14.6563C47.8303 15.6404 48.893 16.7061 49.874 17.8447L49.9189 17.8281C49.2714 16.5146 48.7077 15.1613 48.2314 13.7764L47.2724 11.1289L49.9053 10.1758L53.5771 20.3154L50.4629 21.4434L47.4121 18.7529C46.2327 17.7375 45.1053 16.6632 44.0342 15.5342L43.9746 15.5557C44.6055 17.0635 45.1543 18.5322 45.7099 20.0674L46.7012 22.8057L44.0684 23.7588Z" fill="#272343"/>
<path d="M57.625 8.9502L59.1465 19.625L56.1533 20.0518L54.6309 9.377L57.625 8.9502Z" fill="#272343"/>
<path d="M70.7489 19.333C69.7532 19.6594 68.7027 19.7852 67.6581 19.7031C63.2967 19.5039 61.4618 16.9063 61.5946 14.0147C61.7665 10.2764 64.7977 8.39748 68.329 8.55959C69.3858 8.56585 70.4289 8.79932 71.3876 9.24417L70.6571 11.5479C69.9246 11.2132 69.1337 11.0248 68.329 10.9932C66.5243 10.9102 64.8817 11.8115 64.7831 13.9522C64.6981 15.8057 65.9012 17.1573 68.1219 17.2588C68.8879 17.3003 69.6554 17.2112 70.3915 16.9952L70.7489 19.333Z" fill="#272343"/>
<path d="M76.6133 18.4375L75.1621 20.7285L72.1289 19.7627L78.6465 10.5225L82.5791 11.7744L82.7686 23.1494L79.5674 22.1309L79.6016 19.3887L76.6133 18.4375ZM79.8291 17.1436L79.8574 15.1553C79.8594 14.5176 79.8838 13.7031 79.8896 13.0498L79.8594 13.04C79.502 13.582 79.1123 14.2803 78.7549 14.8213L77.6943 16.4648L79.8291 17.1436Z" fill="#272343"/>
<path d="M89.9473 14.9248L92.5224 16.5078L88.1992 23.5391L92.165 25.9766L90.8418 28.1299L84.3008 24.1084L89.9473 14.9248Z" fill="#272343"/>
<path d="M99.8027 21.5889L101.982 23.6826L96.2666 29.6348L99.623 32.8584L97.873 34.6807L92.3359 29.3633L99.8027 21.5889Z" fill="#272343"/>
<path d="M99.7988 37.3301L103.494 34.7705L106.532 28.1133L108.545 31.0195L107.146 33.2148C106.693 33.9375 106.43 34.3721 106.032 34.9785L106.051 35.0049C106.709 34.8604 107.293 34.7481 108.071 34.5781L110.631 34.0313L112.617 36.8994L105.309 37.1924L101.521 39.8164L99.7988 37.3301Z" fill="#272343"/>
<path d="M71.2323 87.9754C68.7265 87.8503 66.3549 86.8052 64.5719 85.0401L57.4922 78.8056C57.0108 78.3906 56.6685 77.8376 56.5118 77.2216C56.355 76.6056 56.3914 75.9563 56.6158 75.3616C56.8526 74.7392 57.2724 74.203 57.8198 73.8238C58.3672 73.4445 59.0167 73.2399 59.6826 73.2368C60.466 73.2393 61.2215 73.5276 61.8072 74.0477L68.1696 79.6504C68.3721 79.8285 68.5773 80.0182 68.7855 80.2113C69.2937 80.7722 69.9087 81.2261 70.5944 81.5464C70.7494 81.5847 70.9081 81.6054 71.0677 81.6082C71.7567 81.6082 72.323 80.6737 73.0871 78.2757C77.0403 65.8728 82.5358 57.5107 89.888 52.7102C90.4025 52.37 91.0052 52.1875 91.6221 52.1851C92.3129 52.1997 92.9809 52.4347 93.5286 52.8559C94.0764 53.277 94.4752 53.8623 94.6667 54.5261C94.8583 55.19 94.8327 55.8977 94.5936 56.5459C94.3544 57.1942 93.9144 57.749 93.3376 58.1295C89.1108 60.8895 85.5763 65.3313 82.5327 71.7077C81.3583 74.1909 80.3425 76.7461 79.4912 79.3579C79.3664 79.7344 79.2557 80.122 79.1434 80.512C78.7239 82.66 77.649 84.6252 76.0667 86.1373C74.7294 87.3121 73.0123 87.9648 71.2323 87.9754Z" stroke="#272343" stroke-width="3" stroke-linecap="round" stroke-linejoin="round"/>
<path d="M94.6625 54.5126C94.4712 53.8505 94.0726 53.2671 93.5253 52.8482C92.9781 52.4293 92.3109 52.1968 91.6218 52.1851C91.0049 52.1875 90.4022 52.3701 89.8877 52.7103C84.6381 56.1378 80.3398 61.3924 76.8689 68.626L70.5664 58.574C70.3268 58.1919 70.1997 57.7501 70.1997 57.2991V39.2347H71.1136C71.6896 39.2347 72.2421 39.0058 72.6494 38.5985C73.0567 38.1911 73.2856 37.6387 73.2856 37.0626V36.1721C73.2856 35.596 73.0567 35.0435 72.6494 34.6362C72.2421 34.2289 71.6896 34 71.1136 34H56.8851C56.309 34 55.7566 34.2288 55.3492 34.6362C54.9419 35.0435 54.7131 35.596 54.7131 36.1721V37.0626C54.7131 37.6387 54.9419 38.1912 55.3492 38.5985C55.7566 39.0058 56.309 39.2347 56.8851 39.2347H57.7989V57.2991C57.7989 57.75 57.6719 58.1919 57.4323 58.574L43.2851 81.1378C42.4881 82.4091 42.0461 83.8706 42.0051 85.3705C41.9641 86.8704 42.3256 88.3539 43.052 89.6668C43.7785 90.9797 44.8433 92.074 46.1359 92.8361C47.4284 93.5981 48.9015 94 50.402 94H77.5968C79.0972 94 80.5703 93.5981 81.8629 92.8361C83.1554 92.074 84.2203 90.9797 84.9467 89.6668C85.6731 88.3539 86.0347 86.8704 85.9937 85.3705C85.9527 83.8706 85.5107 82.4091 84.7136 81.1378L81.0004 75.2154C81.487 74.0003 81.9946 72.8344 82.5324 71.7076C85.576 65.3312 89.1106 60.8895 93.3372 58.1295C93.9209 57.7523 94.366 57.1953 94.6051 56.5428C94.8441 55.8903 94.8643 55.1776 94.6625 54.5126Z" stroke="#272343" stroke-width="3" stroke-linecap="round" stroke-linejoin="round"/>
<path d="M100.146 98.5273C107.056 91.3057 111.639 82.1769 113.302 72.322C114.966 62.4671 113.635 52.3397 109.479 43.25" stroke="#272343" stroke-width="3" stroke-linecap="round" stroke-linejoin="round"/>
<path d="M18.5198 43.25C14.3647 52.3397 13.033 62.4671 14.6969 72.322C16.3608 82.1769 20.9437 91.3057 27.8528 98.5273" stroke="#272343" stroke-width="3" stroke-linecap="round" stroke-linejoin="round"/>
</svg>
