<svg width="128" height="128" viewBox="0 0 128 128" fill="none" xmlns="http://www.w3.org/2000/svg">
<path d="M110.634 107.209L110.603 107.204V100.298C110.603 99.259 109.761 98.4171 108.722 98.4171C107.682 98.4171 106.84 99.259 106.84 100.298V106.657L103.68 106.198L100.57 99.8966C99.43 97.5848 96.1272 97.5816 94.9842 99.8963L94.4917 100.894V94.3488C94.4917 93.3095 93.6497 92.4676 92.6105 92.4676C91.5712 92.4676 90.7292 93.3095 90.7292 94.3488V106.364L84.9197 107.208C82.367 107.579 81.346 110.719 83.1935 112.521L85.6452 114.911H76.1307C76.914 114.147 76.4065 114.642 78.5822 112.521L78.5825 112.521C80.4242 110.732 79.4177 107.581 76.856 107.208L72.7152 106.607L69.5945 88.1683L71.351 85.5243L72.3285 86.2186C74.029 87.4266 76.4147 86.8358 77.3502 84.9621V84.9618L83.82 71.9953L98.549 77.7001C99.0682 77.9223 106.84 81.4063 106.84 90.6396V91.5196C106.84 92.5588 107.682 93.4008 108.721 93.4008C109.76 93.4008 110.602 92.5588 110.602 91.5196V90.6396C110.602 78.7246 100.404 74.3948 99.9702 74.2163C99.9585 74.2113 99.9465 74.2066 99.9345 74.2018L75.5412 64.7551V58.8806C79.4325 55.8788 82.1225 51.3976 82.7647 46.2853C87.4495 46.0178 90.9117 42.2471 90.9117 37.7831C90.9117 35.7126 90.1575 33.7363 88.8155 32.2038V24.6188C88.8155 12.6301 80.282 2.2908 68.5245 0.0348026C67.5062 -0.161447 66.5185 0.507053 66.3227 1.5278C66.1267 2.5478 66.7952 3.5338 67.8157 3.72955C77.8037 5.64655 85.0535 14.4316 85.0535 24.6188V29.7121C84.3702 29.4866 83.655 29.3471 82.9187 29.2928C82.9187 27.2456 83.0892 27.7931 76.5615 20.7773L76.5612 20.7771C75.411 19.5411 73.5507 19.3146 72.138 20.2378C65.1765 24.7856 56.7177 27.1146 48.851 26.6681C47.515 26.5921 46.8387 26.6451 45.7515 27.5511C45.228 28.0366 44.869 28.6896 44.7242 29.3483C44.086 29.4141 43.218 29.6016 42.5082 29.8606V24.6183C42.5082 14.4311 49.7577 5.6458 59.746 3.72905C60.7662 3.5333 61.4347 2.54755 61.239 1.5273C61.0435 0.507303 60.0567 -0.162447 59.0372 0.0343026C47.2797 2.29055 38.7462 12.6296 38.7462 24.6183V32.4006C37.389 33.9191 36.6505 35.7941 36.6505 37.7828C36.6505 42.2403 40.1042 46.0168 44.7955 46.2848C45.4285 51.3751 48.1125 56.0678 52.43 59.1766V64.7556L28.0635 74.2021C28.0517 74.2068 28.04 74.2113 28.0282 74.2163C27.594 74.3948 17.396 78.7246 17.396 90.6396V107.204L17.3645 107.208C16.1827 107.38 15.2192 108.192 14.8502 109.328C14.481 110.464 14.783 111.687 15.6382 112.521L20.6705 117.426L19.4822 124.352C19.2805 125.529 19.7555 126.697 20.7215 127.399C21.6872 128.1 22.9437 128.191 24.0012 127.635L30.2217 124.365L36.442 127.635C37.4985 128.191 38.7555 128.1 39.7217 127.399C40.6882 126.697 41.1627 125.529 40.9607 124.352L39.9865 118.673H54.2345L53.2602 124.352C52.8247 126.895 55.4952 128.836 57.7795 127.635L64 124.365L70.2202 127.635C71.2767 128.191 72.5337 128.1 73.5 127.399C74.4665 126.697 74.941 125.529 74.739 124.352L73.7647 118.673H88.0127L87.0385 124.352C86.603 126.895 89.2735 128.836 91.5577 127.635L97.7782 124.365L103.998 127.635C106.282 128.836 108.953 126.895 108.517 124.352L107.329 117.426L112.362 112.521C114.208 110.72 113.187 107.58 110.634 107.209ZM82.9185 33.0738C85.4422 33.3993 87.1495 35.4533 87.1495 37.7828C87.1495 40.1293 85.431 42.1711 82.9185 42.4936V33.0738ZM44.6432 42.4933C42.1347 42.1713 40.4122 40.1356 40.4122 37.7826C40.4122 35.4658 42.3785 33.6068 44.6432 33.1641V42.4933ZM80.2967 70.6313L74.1695 82.9116C73.426 82.3836 67.3495 78.0676 66.7092 77.6128L74.2595 68.2936L80.2967 70.6313ZM66.607 85.8668H61.377L59.7015 83.3453L63.9917 80.2983L68.2822 83.3453L66.607 85.8668ZM68.2712 102.894L66.792 99.8966C65.6492 97.5801 62.3472 97.5833 61.206 99.8963L59.7062 102.935L61.9582 89.6293H66.0265L68.2712 102.894ZM56.1917 65.3613V61.2791C58.5922 62.2781 61.267 62.8101 64.0272 62.8101C66.731 62.8101 69.416 62.2133 71.7792 61.1441V65.3773L63.9922 74.9896L56.1917 65.3613ZM48.4057 43.9191C48.4057 42.4796 48.4057 31.8486 48.4057 30.4118C57.0507 30.9538 66.3347 28.4551 73.9807 23.5266C76.9935 26.7636 78.6667 28.5006 79.1562 29.1146C79.1562 30.7351 79.1562 42.0986 79.1562 43.9188C79.1562 52.2491 72.3647 59.0473 64.0275 59.0473C54.816 59.0476 48.4057 51.9403 48.4057 43.9191ZM53.715 68.2973L61.2667 77.6188C59.4237 78.9278 54.3652 82.521 53.8152 82.9116L47.6877 70.6313L53.715 68.2973ZM36.902 114.969C36.1817 115.672 35.8325 116.712 36.0065 117.726L37.03 123.694L31.67 120.877C30.7627 120.4 29.679 120.4 28.7712 120.877L23.4115 123.695L24.4352 117.726C24.6082 116.716 24.2735 115.685 23.5395 114.97L19.2032 110.743L25.197 109.872C26.2037 109.725 27.084 109.094 27.5412 108.169L30.221 102.739C33.054 108.479 32.9257 108.249 33.0905 108.5C33.576 109.24 34.3582 109.743 35.246 109.873L41.2385 110.744L36.902 114.969ZM42.3525 114.911L44.8042 112.521L44.8045 112.521C46.653 110.718 45.631 107.58 43.0777 107.209L37.269 106.365V94.3488C37.269 93.3095 36.427 92.4676 35.3877 92.4676C34.3485 92.4676 33.5065 93.3095 33.5065 94.3488V100.895L33.0135 99.8963C31.8795 97.5975 28.576 97.5686 27.4275 99.8961L24.3175 106.198L21.1572 106.657V90.6396C21.1572 81.3793 28.975 77.9018 29.4462 77.7008L44.1635 71.9953L50.6337 84.9626C51.5665 86.8313 53.9495 87.4306 55.6555 86.2191L56.633 85.5248L58.3897 88.1688L55.2687 106.609L51.142 107.209C48.5837 107.58 47.5725 110.724 49.4155 112.522L51.8672 114.911H42.3525ZM70.6802 114.969C69.9585 115.674 69.611 116.713 69.7847 117.726L70.8082 123.694L65.4482 120.877C64.541 120.4 63.4572 120.4 62.5495 120.877L57.1897 123.694L58.2135 117.726C58.392 116.684 58.0167 115.651 57.3177 114.969L52.9815 110.743L58.9752 109.872C59.9522 109.73 60.859 109.1 61.3195 108.168L63.9992 102.739L66.6792 108.169C67.1507 109.123 68.0662 109.733 69.0245 109.872L75.017 110.743L70.6802 114.969ZM104.458 114.969C103.724 115.685 103.389 116.716 103.563 117.726L104.586 123.694L99.2265 120.877C98.3192 120.4 97.2355 120.4 96.3277 120.877L90.968 123.694L91.9917 117.726C92.1665 116.706 91.813 115.668 91.096 114.969L86.7597 110.743L92.7535 109.872C93.7672 109.724 94.6435 109.088 95.0977 108.168L97.7775 102.739L100.457 108.169C100.514 108.284 100.578 108.394 100.647 108.5C101.133 109.239 101.915 109.743 102.802 109.872L108.795 110.743L104.458 114.969Z" fill="#272343"/>
</svg>
