<svg width="128" height="128" viewBox="0 0 128 128" fill="none" xmlns="http://www.w3.org/2000/svg">
<path fill-rule="evenodd" clip-rule="evenodd" d="M81.6128 116.77C74.8248 121.368 67.0472 124.65 58.6238 126.209C58.3821 126.254 58.1341 126.254 57.8924 126.209C29.1494 120.884 7.91797 95.4709 7.91797 66.1724V24.4665C7.91797 23.6631 8.39684 22.9373 9.13522 22.621L57.4678 1.91891C57.9725 1.70281 58.5437 1.70281 59.0487 1.91891L107.398 22.6208C108.136 22.937 108.615 23.6631 108.615 24.4665V66.1724C108.615 69.1744 108.393 72.1354 107.962 75.0383C115.209 79.3519 120.081 87.2678 120.081 96.2848C120.081 109.89 108.99 120.981 95.3846 120.981C90.2927 120.981 85.552 119.427 81.6128 116.77ZM104.161 73.1968C104.451 70.8893 104.6 68.5444 104.6 66.1724V25.7909L58.2584 5.9489L11.9337 25.7909V66.1724C11.9337 93.4201 31.5907 117.07 58.2586 122.192C65.5626 120.79 72.3401 117.999 78.3315 114.126C73.6221 109.625 70.6816 103.288 70.6816 96.2848C70.6816 93.9213 71.0164 91.6334 71.6414 89.4661H56.8192C49.9241 89.4661 45.7713 87.5256 41.4655 86.0021V87.0111C41.4655 89.2064 39.6723 90.9996 37.4772 90.9996H29.4511C27.264 90.9996 25.4628 89.2064 25.4628 87.0111V52.3479C25.4628 50.1528 27.264 48.3596 29.4511 48.3596H37.4772C39.6489 48.3596 41.4271 50.1147 41.4648 52.2779C42.936 52.187 43.9374 51.5407 44.6505 50.5107C47.8675 45.8558 47.5809 45.9434 51.7911 43.1926C57.4879 39.4668 57.2775 37.9449 59.4465 28.5188C59.567 27.9948 59.8925 27.541 60.3503 27.2591C60.8081 26.9773 61.36 26.8907 61.882 27.019C66.6165 28.1817 68.7067 31.7472 69.1743 35.9624C69.6057 39.8511 68.5363 44.2864 67.1734 47.4332H81.7115C85.4318 47.4332 88.4752 50.4726 88.4752 54.1926C88.4752 55.4841 88.1072 56.6946 87.4707 57.7244C89.6083 58.8626 91.0705 61.1154 91.0705 63.696C91.0705 65.9912 89.9143 68.0269 88.1549 69.2497C88.7982 70.1381 89.2314 71.187 89.3802 72.3219C91.3037 71.8385 93.3151 71.5815 95.3846 71.5815C98.4732 71.5815 101.432 72.1535 104.161 73.1968ZM73.193 85.4505C74.172 83.4567 75.4121 81.6125 76.8683 79.9628H69.3133C68.2052 79.9628 67.3055 79.0633 67.3055 77.9549C67.3055 76.8468 68.2052 75.9471 69.3133 75.9471H81.3905C82.6404 75.0835 83.9733 74.332 85.3743 73.7073C85.4054 73.5424 85.4217 73.3728 85.4217 73.1993C85.4217 71.6915 84.1882 70.4556 82.6778 70.4556H69.3133C68.2052 70.4556 67.3055 69.5559 67.3055 68.4478C67.3055 67.3395 68.2052 66.4399 69.3133 66.4399H84.3109C85.8213 66.4399 87.0549 65.2064 87.0549 63.696C87.0549 62.1858 85.8213 60.9523 84.3109 60.9523H69.3133C68.2052 60.9523 67.3055 60.0525 67.3055 58.9444C67.3055 57.8361 68.2052 56.9366 69.3133 56.9366H81.7115C83.2224 56.9366 84.4595 55.701 84.4595 54.1926C84.4595 52.682 83.2224 51.4489 81.7115 51.4489H63.727C62.9414 51.4489 62.2279 50.9906 61.9011 50.2758C61.5743 49.5613 61.6945 48.7217 62.2085 48.1274C63.7947 46.2937 65.6791 40.8753 65.1832 36.4051C64.9754 34.5318 64.306 32.8151 62.8227 31.7635C60.7501 40.7993 60.2077 42.4864 53.9892 46.5535L53.9882 46.554C50.4132 48.8896 50.685 48.842 47.9534 52.7946L47.9526 52.7959C46.5155 54.8723 44.5019 56.1974 41.4655 56.2986V81.7683C45.8644 83.2481 49.8352 85.4505 56.8192 85.4505H73.193ZM95.3846 116.966C106.777 116.966 116.065 107.677 116.065 96.2848C116.065 84.892 106.777 75.5972 95.3846 75.5972C83.9919 75.5972 74.6973 84.8918 74.6973 96.2848C74.6973 107.678 83.9919 116.966 95.3846 116.966ZM92.3982 95.4352L102.008 85.7253L102.012 85.7215C104.099 83.6233 107.506 83.6133 109.604 85.7007C111.701 87.7871 111.715 91.1813 109.629 93.2896L109.628 93.2903C105.15 97.8085 100.706 102.354 96.2086 106.852C94.1117 108.949 90.7064 108.949 88.6094 106.852L81.1548 99.3904C79.0586 97.2945 79.0551 93.9017 81.1513 91.7947L81.1548 91.7912C83.252 89.694 86.6571 89.694 88.7542 91.7912L92.3982 95.4352ZM90.986 99.7019L85.9146 94.6306C85.3853 94.1012 84.5262 94.1007 83.9962 94.6288C83.4671 95.1626 83.4641 96.0205 83.9944 96.5508L91.449 104.012C91.9788 104.542 92.8392 104.542 93.3693 104.012C97.8626 99.5189 102.302 94.9782 106.775 90.4645C107.302 89.932 107.302 89.0746 106.772 88.5476C106.244 88.0218 105.385 88.0248 104.859 88.5528L93.8328 99.6946C93.4569 100.074 92.9451 100.289 92.4108 100.29C91.8764 100.291 91.3637 100.08 90.986 99.7019ZM29.4784 52.3753V86.9839H37.4498V52.3753H29.4784Z" fill="#272343"/>
</svg>
