<svg width="17" height="17" viewBox="0 0 17 17" fill="none" xmlns="http://www.w3.org/2000/svg">
<path d="M11.0118 8.4909L15.8081 3.68958C16.1196 3.33565 16.2845 2.87642 16.2695 2.40523C16.2544 1.93404 16.0605 1.48626 15.7272 1.15291C15.3938 0.819565 14.946 0.625661 14.4748 0.610617C14.0037 0.595574 13.5444 0.760519 13.1905 1.07193L8.38918 5.86829L3.57921 1.05709C3.40693 0.884803 3.2024 0.74814 2.9773 0.654901C2.7522 0.561662 2.51094 0.513672 2.26729 0.513672C2.02364 0.513672 1.78238 0.561662 1.55728 0.654901C1.33218 0.74814 1.12765 0.884803 0.955369 1.05709C0.783085 1.22937 0.646422 1.4339 0.553183 1.659C0.459943 1.8841 0.411954 2.12536 0.411954 2.36901C0.411954 2.61265 0.459943 2.85392 0.553183 3.07902C0.646422 3.30411 0.783085 3.50865 0.955369 3.68093L5.76657 8.4909L0.970207 13.291C0.782102 13.4591 0.630282 13.6639 0.524034 13.8927C0.417787 14.1216 0.359347 14.3697 0.352288 14.6219C0.34523 14.8741 0.389702 15.1251 0.482985 15.3595C0.576267 15.5939 0.716398 15.8069 0.894804 15.9853C1.07321 16.1637 1.28614 16.3038 1.52057 16.3971C1.75499 16.4904 2.00599 16.5348 2.25819 16.5278C2.5104 16.5207 2.75851 16.4623 2.98735 16.356C3.2162 16.2498 3.42095 16.098 3.5891 15.9099L8.38918 11.1135L13.1843 15.9099C13.5322 16.2578 14.0042 16.4533 14.4962 16.4533C14.9883 16.4533 15.4602 16.2578 15.8081 15.9099C16.1561 15.5619 16.3516 15.09 16.3516 14.5979C16.3516 14.1059 16.1561 13.634 15.8081 13.286L11.0118 8.4909Z" fill="#FFEB02"/>
</svg>
