<svg width="60" height="60" viewBox="0 0 60 60" fill="none" xmlns="http://www.w3.org/2000/svg">
<path d="M29.413 54.7433C27.3784 54.7457 25.3583 54.4013 23.4395 53.725C23.3233 53.684 23.2164 53.6206 23.1248 53.5383C23.0332 53.456 22.9587 53.3565 22.9056 53.2454C22.8525 53.1343 22.8217 53.0139 22.8152 52.8909C22.8086 52.768 22.8263 52.6449 22.8672 52.5288C22.9082 52.4127 22.9716 52.3058 23.0539 52.2142C23.1362 52.1226 23.2357 52.0481 23.3468 51.995C23.4579 51.9419 23.5783 51.9111 23.7013 51.9045C23.8242 51.8979 23.9472 51.9156 24.0634 51.9566C26.4873 52.8096 29.0804 53.0692 31.6253 52.7138C34.1703 52.3584 36.593 51.3983 38.6906 49.914C40.7882 48.4296 42.4995 46.4642 43.6812 44.1824C44.8629 41.9005 45.4805 39.3688 45.4824 36.7991C45.4824 28.93 32.6799 10.7614 29.413 6.25348C26.146 10.7614 13.3438 28.93 13.3438 36.7991C13.3438 37.0477 13.245 37.2862 13.0692 37.462C12.8933 37.6378 12.6549 37.7366 12.4062 37.7366C12.1576 37.7366 11.9192 37.6378 11.7433 37.462C11.5675 37.2862 11.4688 37.0477 11.4688 36.7991C11.4688 27.205 27.9603 5.0441 28.6623 4.10543C28.7496 3.98873 28.8629 3.89399 28.9932 3.82873C29.1235 3.76347 29.2672 3.72949 29.413 3.72949C29.5587 3.72949 29.7024 3.76347 29.8328 3.82873C29.9631 3.89399 30.0764 3.98873 30.1637 4.10543C30.8668 5.04293 47.3574 27.205 47.3574 36.7991C47.352 41.5566 45.4597 46.1177 42.0956 49.4817C38.7316 52.8457 34.1705 54.738 29.413 54.7433Z" fill="white"/>
<path d="M16.4899 56.2698C16.2706 56.2698 16.0583 56.1929 15.8899 56.0525C15.7214 55.9122 15.6075 55.7172 15.5679 55.5015C15.5571 55.4443 14.3878 49.5641 8.54039 46.697C8.38295 46.6198 8.25032 46.5 8.15756 46.3512C8.0648 46.2024 8.01562 46.0306 8.01562 45.8552C8.01562 45.6799 8.0648 45.5081 8.15756 45.3593C8.25032 45.2105 8.38295 45.0907 8.54039 45.0135C14.4199 42.1307 15.5571 36.2675 15.5679 36.2087C15.6075 35.993 15.7214 35.7981 15.8899 35.6577C16.0583 35.5173 16.2706 35.4404 16.4899 35.4404C16.7092 35.4404 16.9216 35.5172 17.0901 35.6576C17.2586 35.798 17.3726 35.993 17.4122 36.2087C17.423 36.2657 18.592 42.1461 24.4397 45.0135C24.5971 45.0907 24.7298 45.2105 24.8225 45.3593C24.9153 45.5081 24.9645 45.6799 24.9645 45.8552C24.9645 46.0306 24.9153 46.2024 24.8225 46.3512C24.7298 46.5 24.5971 46.6198 24.4397 46.697C18.5599 49.5798 17.423 55.4425 17.4122 55.5015C17.3726 55.7172 17.2586 55.9122 17.0901 56.0526C16.9216 56.193 16.7092 56.2698 16.4899 56.2698ZM10.8649 45.8551C13.3382 47.4469 15.2931 49.726 16.4899 52.4127C17.6869 49.7261 19.6418 47.4471 22.1149 45.8551C19.6416 44.2634 17.6866 41.9843 16.4899 39.2975C15.2933 41.9844 13.3384 44.2635 10.8649 45.8551Z" fill="white"/>
<path d="M51.0477 30.1403C50.8283 30.1403 50.6159 30.0634 50.4474 29.923C50.2789 29.7826 50.1649 29.5875 50.1254 29.3718C49.8517 28.2394 49.3326 27.181 48.6048 26.2714C47.8769 25.3618 46.9582 24.6231 45.9134 24.1077C45.756 24.0305 45.6234 23.9107 45.5306 23.7619C45.4378 23.6131 45.3887 23.4413 45.3887 23.266C45.3887 23.0906 45.4378 22.9188 45.5306 22.77C45.6234 22.6212 45.756 22.5014 45.9134 22.4242C46.9558 21.9054 47.8725 21.1658 48.5999 20.2567C49.3273 19.3476 49.8479 18.2909 50.1254 17.1601C50.1649 16.9444 50.2788 16.7493 50.4473 16.6089C50.6158 16.4685 50.8282 16.3916 51.0475 16.3916C51.2669 16.3916 51.4793 16.4685 51.6477 16.6089C51.8162 16.7493 51.9302 16.9444 51.9697 17.1601C52.2435 18.2925 52.7627 19.3509 53.4905 20.2605C54.2184 21.1701 55.1371 21.9087 56.1819 22.4242C56.3393 22.5014 56.4719 22.6212 56.5647 22.77C56.6575 22.9188 56.7066 23.0906 56.7066 23.266C56.7066 23.4413 56.6575 23.6131 56.5647 23.7619C56.4719 23.9107 56.3393 24.0305 56.1819 24.1077C55.1395 24.6265 54.2228 25.3662 53.4953 26.2753C52.7679 27.1844 52.2473 28.241 51.9697 29.3718C51.9302 29.5875 51.8163 29.7825 51.6478 29.9229C51.4793 30.0634 51.267 30.1403 51.0477 30.1403ZM48.1477 23.2661C49.3548 24.1381 50.3467 25.2743 51.0477 26.5881C51.7486 25.2739 52.7405 24.1373 53.9478 23.2651C52.7405 22.3929 51.7485 21.2562 51.0477 19.9419C50.3469 21.2561 49.3552 22.3927 48.1482 23.2651L48.1477 23.2661Z" fill="white"/>
<path d="M8.95242 18.2645H8.94867C8.73012 18.264 8.51861 18.1871 8.35081 18.0471C8.18301 17.9071 8.06948 17.7128 8.02992 17.4978C7.75598 16.3656 7.23674 15.3075 6.50889 14.398C5.78105 13.4886 4.86235 12.7501 3.81773 12.2347C3.6603 12.1575 3.52767 12.0377 3.4349 11.8889C3.34214 11.7401 3.29297 11.5683 3.29297 11.3929C3.29297 11.2176 3.34214 11.0458 3.4349 10.897C3.52767 10.7482 3.6603 10.6284 3.81773 10.5512C4.8631 10.0353 5.78231 9.29593 6.51031 8.38547C7.23832 7.47501 7.75733 6.41567 8.03062 5.28242C8.07165 5.06794 8.18612 4.87445 8.35435 4.73523C8.52257 4.596 8.73405 4.51973 8.95242 4.51953H8.95641C9.17488 4.52024 9.38625 4.59723 9.554 4.73721C9.72175 4.87719 9.83534 5.07135 9.87516 5.28617C10.1487 6.41835 10.6675 7.47664 11.395 8.38626C12.1225 9.29587 13.0408 10.0346 14.0852 10.5502C14.2427 10.6274 14.3753 10.7472 14.4681 10.896C14.5608 11.0448 14.61 11.2167 14.61 11.392C14.61 11.5673 14.5608 11.7392 14.4681 11.888C14.3753 12.0368 14.2427 12.1566 14.0852 12.2338C13.0401 12.7496 12.1212 13.4888 11.3934 14.3991C10.6655 15.3094 10.1467 16.3686 9.87352 17.5016C9.83247 17.7159 9.71809 17.9093 9.55002 18.0485C9.38195 18.1877 9.17066 18.264 8.95242 18.2645ZM6.0518 11.3909C7.25939 12.2634 8.25154 13.4004 8.95242 14.7151C9.65302 13.4006 10.6447 12.2636 11.8519 11.3909C10.645 10.5189 9.65323 9.38266 8.95242 8.06891C8.25135 9.38283 7.25921 10.5191 6.0518 11.3909Z" fill="white"/>
</svg>
