<svg width="121" height="95" viewBox="0 0 121 95" fill="none" xmlns="http://www.w3.org/2000/svg">
<path d="M22.9955 46.5178C9.67601 46.5178 0.666016 37.1861 0.666016 23.3596C0.666016 10.9174 11.002 0.551758 25.0015 0.551758C40.3355 0.551758 51.666 12.9939 51.666 31.999C51.666 75.1963 20.335 92.4752 0.666016 94.5518V75.5467C14.0025 73.1283 28.9965 59.6521 29.668 44.783C28.9965 45.1248 26.336 46.5178 22.9955 46.5178Z" fill="#F0F2F3" fill-opacity="0.09"/>
<path d="M91.9955 46.5178C78.6675 46.5178 69.666 37.1861 69.666 23.3596C69.666 10.9174 80.002 0.551758 94.0015 0.551758C109.336 0.551758 120.666 12.9939 120.666 31.999C120.666 75.1963 89.335 92.4752 69.666 94.5518V75.5467C83.0025 73.1283 97.9965 59.6521 98.668 44.783C97.9965 45.1248 95.336 46.5178 91.9955 46.5178Z" fill="#F0F2F3" fill-opacity="0.09"/>
</svg>
