<svg width="120" height="94" viewBox="0 0 120 94" fill="none" xmlns="http://www.w3.org/2000/svg">
<path d="M22.3295 45.966C9.01 45.966 0 36.6344 0 22.8078C0 10.3656 10.336 0 24.3355 0C39.6695 0 51 12.4422 51 31.4473C51 74.6446 19.669 91.9235 0 94V74.9949C13.3365 72.5765 28.3305 59.1004 29.002 44.2313C28.3305 44.5731 25.67 45.966 22.3295 45.966Z" fill="#F0F2F3"/>
<path d="M91.3295 45.966C78.0015 45.966 69 36.6344 69 22.8078C69 10.3656 79.336 0 93.3355 0C108.669 0 120 12.4422 120 31.4473C120 74.6446 88.669 91.9235 69 94V74.9949C82.3365 72.5765 97.3305 59.1004 98.002 44.2313C97.3305 44.5731 94.67 45.966 91.3295 45.966Z" fill="#F0F2F3"/>
</svg>
