<svg width="37" height="37" viewBox="0 0 37 37" fill="none" xmlns="http://www.w3.org/2000/svg">
<path d="M32.1319 24.1162H26.4391C26.2821 24.1162 26.1315 24.0538 26.0205 23.9428C25.9095 23.8318 25.8471 23.6812 25.8471 23.5242V19.6503H22.57C22.0669 20.2535 21.4373 20.7389 20.7259 21.0719C20.0145 21.4049 19.2385 21.5776 18.453 21.5776C17.6675 21.5776 16.8916 21.4049 16.1801 21.0719C15.4687 20.7389 14.8391 20.2535 14.336 19.6503H11.0549V20.5679C11.0549 20.7249 10.9925 20.8755 10.8815 20.9865C10.7704 21.0975 10.6199 21.1599 10.4629 21.1599H4.86809C4.71108 21.1599 4.56051 21.0975 4.44949 20.9865C4.33846 20.8755 4.27609 20.7249 4.27609 20.5679V11.8555C4.27609 11.6985 4.33846 11.5479 4.44949 11.4369C4.56051 11.3259 4.71108 11.2635 4.86809 11.2635H10.4629C10.6199 11.2635 10.7704 11.3259 10.8815 11.4369C10.9925 11.5479 11.0549 11.6985 11.0549 11.8555V12.7735H14.3349C14.838 12.1702 15.4676 11.6849 16.179 11.3519C16.8904 11.0188 17.6664 10.8462 18.4519 10.8462C19.2374 10.8462 20.0134 11.0188 20.7248 11.3519C21.4362 11.6849 22.0658 12.1702 22.5689 12.7735H26.4391C29.9045 12.7735 32.7239 15.5929 32.7239 19.0583V23.5242C32.7239 23.6812 32.6615 23.8318 32.5505 23.9428C32.4395 24.0538 32.2889 24.1162 32.1319 24.1162ZM27.0311 22.9322H31.5399V19.0583C31.5399 16.2463 29.2518 13.9575 26.4391 13.9575H22.2825C22.1902 13.9575 22.0992 13.9359 22.0167 13.8945C21.9342 13.853 21.8625 13.7929 21.8074 13.7188C21.4184 13.1955 20.9124 12.7704 20.3297 12.4775C19.7471 12.1846 19.104 12.032 18.4519 12.032C17.7998 12.032 17.1567 12.1846 16.5741 12.4775C15.9914 12.7704 15.4854 13.1955 15.0964 13.7188C15.0413 13.7928 14.9697 13.853 14.8873 13.8944C14.8049 13.9358 14.7139 13.9574 14.6217 13.9575H10.4629C10.3059 13.9575 10.1553 13.8951 10.0443 13.7841C9.93323 13.6731 9.87086 13.5225 9.87086 13.3655V12.4475H5.46009V19.9759H9.87086V19.0583C9.87086 18.9013 9.93323 18.7507 10.0443 18.6397C10.1553 18.5287 10.3059 18.4663 10.4629 18.4663H14.6217C14.7138 18.4663 14.8047 18.4879 14.887 18.5293C14.9694 18.5707 15.0409 18.6307 15.096 18.7046C15.485 19.2279 15.9911 19.653 16.5737 19.9459C17.1564 20.2388 17.7994 20.3913 18.4515 20.3913C19.1036 20.3913 19.7467 20.2388 20.3293 19.9459C20.912 19.653 21.418 19.2279 21.8071 18.7046C21.8622 18.6306 21.9339 18.5705 22.0164 18.5291C22.0988 18.4877 22.1899 18.4662 22.2821 18.4663H26.4391C26.5961 18.4663 26.7467 18.5287 26.8577 18.6397C26.9687 18.7507 27.0311 18.9013 27.0311 19.0583V22.9322Z" fill="black"/>
<path d="M10.4628 19.6503C10.3058 19.6503 10.1553 19.5879 10.0442 19.4769C9.93322 19.3658 9.87085 19.2153 9.87085 19.0583V13.3654C9.87085 13.2084 9.93322 13.0579 10.0442 12.9468C10.1553 12.8358 10.3058 12.7734 10.4628 12.7734C10.6199 12.7734 10.7704 12.8358 10.8815 12.9468C10.9925 13.0579 11.0548 13.2084 11.0548 13.3654V19.0583C11.0548 19.2153 10.9925 19.3658 10.8815 19.4769C10.7704 19.5879 10.6199 19.6503 10.4628 19.6503Z" fill="black"/>
<path d="M19.8068 12.2271C19.6498 12.2271 19.4993 12.1647 19.3882 12.0537C19.2772 11.9427 19.2148 11.7921 19.2148 11.6351V6.11837C19.2148 5.96136 19.2772 5.81078 19.3882 5.69976C19.4993 5.58874 19.6498 5.52637 19.8068 5.52637C19.9639 5.52637 20.1144 5.58874 20.2255 5.69976C20.3365 5.81078 20.3988 5.96136 20.3988 6.11837V11.6351C20.3988 11.7921 20.3365 11.9427 20.2255 12.0537C20.1144 12.1647 19.9639 12.2271 19.8068 12.2271Z" fill="black"/>
<path d="M17.1932 12.1997C17.0362 12.1997 16.8856 12.1373 16.7746 12.0263C16.6635 11.9153 16.6012 11.7647 16.6012 11.6077V6.11837C16.6012 5.96136 16.6635 5.81078 16.7746 5.69976C16.8856 5.58874 17.0362 5.52637 17.1932 5.52637C17.3502 5.52637 17.5008 5.58874 17.6118 5.69976C17.7228 5.81078 17.7852 5.96136 17.7852 6.11837V11.6077C17.7852 11.7647 17.7228 11.9153 17.6118 12.0263C17.5008 12.1373 17.3502 12.1997 17.1932 12.1997Z" fill="black"/>
<path d="M18.5 7.41305C18.2044 7.41342 17.9119 7.35271 17.6409 7.23473C17.3698 7.11675 17.1261 6.94404 16.9249 6.72744L11.8274 7.0301C11.5865 7.04405 11.3452 7.00862 11.1184 6.92601C10.8916 6.84339 10.6841 6.71533 10.5086 6.54966C10.333 6.38399 10.1932 6.18422 10.0976 5.96258C10.002 5.74095 9.95273 5.50213 9.95273 5.26076C9.95273 5.0194 10.002 4.78058 10.0976 4.55894C10.1932 4.33731 10.333 4.13753 10.5086 3.97186C10.6841 3.8062 10.8916 3.67813 11.1184 3.59551C11.3452 3.5129 11.5865 3.47748 11.8274 3.49142L16.9249 3.79408C17.1263 3.57775 17.3701 3.40522 17.6411 3.28725C17.9121 3.16928 18.2044 3.1084 18.5 3.1084C18.7956 3.1084 19.0879 3.16928 19.3589 3.28725C19.6299 3.40522 19.8737 3.57775 20.0751 3.79408L25.1726 3.49142C25.4135 3.47748 25.6548 3.5129 25.8816 3.59551C26.1084 3.67813 26.3159 3.8062 26.4914 3.97186C26.667 4.13753 26.8068 4.33731 26.9024 4.55894C26.998 4.78058 27.0473 5.0194 27.0473 5.26076C27.0473 5.50213 26.998 5.74095 26.9024 5.96258C26.8068 6.18422 26.667 6.38399 26.4914 6.54966C26.3159 6.71533 26.1084 6.84339 25.8816 6.92601C25.6548 7.00862 25.4135 7.04405 25.1726 7.0301L20.0751 6.72781C19.8739 6.94434 19.6301 7.11698 19.3591 7.2349C19.0881 7.35281 18.7956 7.41346 18.5 7.41305ZM17.1965 5.52605C17.2945 5.52603 17.3909 5.55032 17.4772 5.59675C17.5635 5.64318 17.6369 5.7103 17.6908 5.79208C17.7788 5.92636 17.8989 6.03662 18.0401 6.11293C18.1814 6.18924 18.3394 6.22919 18.5 6.22919C18.6606 6.22919 18.8186 6.18924 18.9598 6.11293C19.1011 6.03662 19.2212 5.92636 19.3092 5.79208C19.3664 5.70533 19.4455 5.63518 19.5384 5.58868C19.6314 5.54218 19.7349 5.52096 19.8387 5.52716L25.2429 5.84795C25.3228 5.85244 25.4028 5.84057 25.4779 5.81308C25.5531 5.78559 25.6219 5.74305 25.68 5.68807C25.7382 5.63308 25.7845 5.56681 25.8162 5.49331C25.8478 5.4198 25.8642 5.34061 25.8642 5.26058C25.8642 5.18054 25.8478 5.10135 25.8162 5.02785C25.7845 4.95434 25.7382 4.88807 25.68 4.83309C25.6219 4.7781 25.5531 4.73556 25.4779 4.70807C25.4028 4.68058 25.3228 4.66872 25.2429 4.6732L19.8387 4.9951C19.7349 5.00127 19.6313 4.97999 19.5384 4.93342C19.4454 4.88685 19.3664 4.81663 19.3092 4.72981C19.221 4.59569 19.101 4.48559 18.9597 4.40939C18.8185 4.3332 18.6605 4.29331 18.5 4.29331C18.3395 4.29331 18.1815 4.3332 18.0403 4.40939C17.899 4.48559 17.7789 4.59569 17.6908 4.72981C17.6336 4.81663 17.5546 4.88685 17.4616 4.93342C17.3687 4.97999 17.2651 5.00127 17.1613 4.9951L11.7571 4.6732C11.6772 4.66872 11.5972 4.68058 11.5221 4.70807C11.4469 4.73556 11.3781 4.7781 11.32 4.83309C11.2618 4.88807 11.2155 4.95434 11.1838 5.02785C11.1522 5.10135 11.1358 5.18054 11.1358 5.26058C11.1358 5.34061 11.1522 5.4198 11.1838 5.49331C11.2155 5.56681 11.2618 5.63308 11.32 5.68807C11.3781 5.74305 11.4469 5.78559 11.5221 5.81308C11.5972 5.84057 11.6772 5.85244 11.7571 5.84795L17.1613 5.52716L17.1965 5.52605Z" fill="black"/>
<path d="M29.1686 33.892C28.5155 33.892 27.8737 33.7221 27.306 33.3992C26.4872 32.9326 25.9855 32.2319 25.8556 31.3727C25.6865 30.2538 26.1309 28.8719 27.1765 27.2657C27.6428 26.5519 28.1649 25.8761 28.7379 25.2448C28.7933 25.1856 28.8602 25.1385 28.9345 25.1062C29.0089 25.074 29.089 25.0574 29.1701 25.0574C29.2511 25.0574 29.3313 25.074 29.4056 25.1062C29.4799 25.1385 29.5468 25.1856 29.6022 25.2448C30.1753 25.8761 30.6974 26.5519 31.1636 27.2657C32.2092 28.8723 32.6536 30.2542 32.4845 31.3727C32.3547 32.2319 31.8529 32.9326 31.0338 33.3992C30.4654 33.7227 29.8226 33.8926 29.1686 33.892ZM29.1686 26.5487C28.2406 27.672 26.8076 29.7647 27.0252 31.1966C27.101 31.6979 27.3844 32.0816 27.891 32.3706C28.2806 32.5912 28.7208 32.7072 29.1686 32.7072C29.6164 32.7072 30.0565 32.5912 30.4462 32.3706C30.9527 32.0816 31.2361 31.6979 31.312 31.1966C31.5296 29.7647 30.0965 27.6723 29.1686 26.5487Z" fill="black"/>
</svg>
