<svg width="60" height="60" viewBox="0 0 60 60" fill="none" xmlns="http://www.w3.org/2000/svg">
<path d="M52.1057 39.1073H42.8741C42.6195 39.1073 42.3753 39.0062 42.1953 38.8261C42.0152 38.6461 41.9141 38.4019 41.9141 38.1473V31.8653H36.5999C35.784 32.8435 34.7631 33.6305 33.6094 34.1706C32.4558 34.7107 31.1975 34.9906 29.9237 34.9906C28.6499 34.9906 27.3916 34.7107 26.2379 34.1706C25.0843 33.6305 24.0634 32.8435 23.2475 31.8653H17.9267V33.3533C17.9267 33.6079 17.8255 33.8521 17.6455 34.0321C17.4655 34.2122 17.2213 34.3133 16.9667 34.3133H7.89408C7.63947 34.3133 7.39529 34.2122 7.21526 34.0321C7.03522 33.8521 6.93408 33.6079 6.93408 33.3533V19.2251C6.93408 18.9705 7.03522 18.7263 7.21526 18.5463C7.39529 18.3662 7.63947 18.2651 7.89408 18.2651H16.9667C17.2213 18.2651 17.4655 18.3662 17.6455 18.5463C17.8255 18.7263 17.9267 18.9705 17.9267 19.2251V20.7137H23.2457C24.0616 19.7354 25.0825 18.9484 26.2361 18.4084C27.3898 17.8683 28.6481 17.5884 29.9219 17.5884C31.1957 17.5884 32.454 17.8683 33.6076 18.4084C34.7613 18.9484 35.7822 19.7354 36.5981 20.7137H42.8741C48.4937 20.7137 53.0657 25.2857 53.0657 30.9053V38.1473C53.0657 38.4019 52.9645 38.6461 52.7845 38.8261C52.6045 39.0062 52.3603 39.1073 52.1057 39.1073ZM43.8341 37.1873H51.1457V30.9053C51.1457 26.3453 47.4353 22.6337 42.8741 22.6337H36.1337C35.984 22.6337 35.8364 22.5987 35.7026 22.5315C35.5688 22.4643 35.4526 22.3668 35.3633 22.2467C34.7324 21.398 33.9118 20.7086 32.967 20.2337C32.0222 19.7587 30.9794 19.5114 29.9219 19.5114C28.8644 19.5114 27.8216 19.7587 26.8768 20.2337C25.932 20.7086 25.1113 21.398 24.4805 22.2467C24.3912 22.3667 24.2751 22.4642 24.1414 22.5314C24.0078 22.5986 23.8603 22.6336 23.7107 22.6337H16.9667C16.7121 22.6337 16.4679 22.5326 16.2879 22.3525C16.1078 22.1725 16.0067 21.9283 16.0067 21.6737V20.1851H8.85408V32.3933H16.0067V30.9053C16.0067 30.6507 16.1078 30.4065 16.2879 30.2265C16.4679 30.0464 16.7121 29.9453 16.9667 29.9453H23.7107C23.8601 29.9454 24.0075 29.9804 24.141 30.0475C24.2746 30.1145 24.3906 30.2119 24.4799 30.3317C25.1107 31.1804 25.9314 31.8698 26.8762 32.3447C27.821 32.8196 28.8638 33.067 29.9213 33.067C30.9788 33.067 32.0216 32.8196 32.9664 32.3447C33.9112 31.8698 34.7318 31.1804 35.3627 30.3317C35.4521 30.2117 35.5683 30.1143 35.7021 30.0472C35.8358 29.9801 35.9834 29.9452 36.1331 29.9453H42.8741C43.1287 29.9453 43.3729 30.0464 43.5529 30.2265C43.7329 30.4065 43.8341 30.6507 43.8341 30.9053V37.1873Z" fill="black"/>
<path d="M16.9668 31.8655C16.7122 31.8655 16.468 31.7643 16.288 31.5843C16.108 31.4043 16.0068 31.1601 16.0068 30.9055V21.6739C16.0068 21.4193 16.108 21.1751 16.288 20.995C16.468 20.815 16.7122 20.7139 16.9668 20.7139C17.2214 20.7139 17.4656 20.815 17.6457 20.995C17.8257 21.1751 17.9268 21.4193 17.9268 21.6739V30.9055C17.9268 31.1601 17.8257 31.4043 17.6457 31.5843C17.4656 31.7643 17.2214 31.8655 16.9668 31.8655Z" fill="black"/>
<path d="M32.1192 19.8279C31.8646 19.8279 31.6204 19.7268 31.4404 19.5467C31.2603 19.3667 31.1592 19.1225 31.1592 18.8679V9.92191C31.1592 9.66731 31.2603 9.42313 31.4404 9.24309C31.6204 9.06306 31.8646 8.96191 32.1192 8.96191C32.3738 8.96191 32.618 9.06306 32.798 9.24309C32.978 9.42313 33.0792 9.66731 33.0792 9.92191V18.8679C33.0792 19.1225 32.978 19.3667 32.798 19.5467C32.618 19.7268 32.3738 19.8279 32.1192 19.8279Z" fill="black"/>
<path d="M27.8804 19.7835C27.6258 19.7835 27.3816 19.6824 27.2016 19.5023C27.0216 19.3223 26.9204 19.0781 26.9204 18.8235V9.92191C26.9204 9.66731 27.0216 9.42313 27.2016 9.24309C27.3816 9.06306 27.6258 8.96191 27.8804 8.96191C28.135 8.96191 28.3792 9.06306 28.5592 9.24309C28.7393 9.42313 28.8404 9.66731 28.8404 9.92191V18.8235C28.8404 19.0781 28.7393 19.3223 28.5592 19.5023C28.3792 19.6824 28.135 19.7835 27.8804 19.7835Z" fill="black"/>
<path d="M29.9996 12.021C29.5202 12.0216 29.0459 11.9232 28.6064 11.7319C28.1669 11.5405 27.7716 11.2605 27.4454 10.9092L19.1792 11.4C18.7884 11.4227 18.3972 11.3652 18.0294 11.2312C17.6617 11.0973 17.3252 10.8896 17.0405 10.6209C16.7559 10.3523 16.5291 10.0283 16.3741 9.66893C16.2191 9.30953 16.1392 8.92225 16.1392 8.53085C16.1392 8.13944 16.2191 7.75217 16.3741 7.39276C16.5291 7.03335 16.7559 6.70939 17.0405 6.44074C17.3252 6.17209 17.6617 5.96442 18.0294 5.83045C18.3972 5.69647 18.7884 5.63903 19.1792 5.66165L27.4454 6.15245C27.772 5.80164 28.1673 5.52186 28.6067 5.33056C29.0462 5.13926 29.5203 5.04053 29.9996 5.04053C30.4789 5.04053 30.953 5.13926 31.3925 5.33056C31.8319 5.52186 32.2272 5.80164 32.5538 6.15245L40.82 5.66165C41.2107 5.63903 41.602 5.69647 41.9698 5.83045C42.3375 5.96442 42.674 6.17209 42.9587 6.44074C43.2433 6.70939 43.4701 7.03335 43.6251 7.39276C43.7801 7.75217 43.86 8.13944 43.86 8.53085C43.86 8.92225 43.7801 9.30953 43.6251 9.66893C43.4701 10.0283 43.2433 10.3523 42.9587 10.6209C42.674 10.8896 42.3375 11.0973 41.9698 11.2312C41.602 11.3652 41.2107 11.4227 40.82 11.4L32.5538 10.9098C32.2275 11.261 31.8322 11.5409 31.3927 11.7321C30.9532 11.9234 30.4789 12.0217 29.9996 12.021ZM27.8858 8.96105C28.0447 8.96101 28.2011 9.0004 28.341 9.07569C28.4809 9.15099 28.5999 9.25982 28.6874 9.39245C28.8301 9.61019 29.0248 9.789 29.2539 9.91274C29.483 10.0365 29.7392 10.1013 29.9996 10.1013C30.26 10.1013 30.5162 10.0365 30.7453 9.91274C30.9744 9.789 31.1691 9.61019 31.3118 9.39245C31.4046 9.25177 31.5328 9.13802 31.6835 9.0626C31.8343 8.98719 32.0022 8.95279 32.1704 8.96285L40.934 9.48305C41.0636 9.49032 41.1933 9.47108 41.3152 9.4265C41.4371 9.38192 41.5486 9.31294 41.6429 9.22378C41.7372 9.13461 41.8123 9.02714 41.8636 8.90795C41.915 8.78875 41.9415 8.66033 41.9415 8.53055C41.9415 8.40076 41.915 8.27234 41.8636 8.15314C41.8123 8.03395 41.7372 7.92648 41.6429 7.83732C41.5486 7.74815 41.4371 7.67917 41.3152 7.63459C41.1933 7.59001 41.0636 7.57077 40.934 7.57805L32.1704 8.10005C32.0021 8.11004 31.8342 8.07554 31.6834 8.00002C31.5327 7.92451 31.4045 7.81063 31.3118 7.66985C31.1689 7.45236 30.9741 7.2738 30.7451 7.15025C30.516 7.02669 30.2598 6.962 29.9996 6.962C29.7393 6.962 29.4832 7.02669 29.2541 7.15025C29.0251 7.2738 28.8303 7.45236 28.6874 7.66985C28.5947 7.81063 28.4665 7.92451 28.3158 8.00002C28.165 8.07554 27.9971 8.11004 27.8288 8.10005L19.0652 7.57805C18.9356 7.57077 18.8059 7.59001 18.684 7.63459C18.5621 7.67917 18.4506 7.74815 18.3563 7.83732C18.262 7.92648 18.1869 8.03395 18.1355 8.15314C18.0842 8.27234 18.0577 8.40076 18.0577 8.53055C18.0577 8.66033 18.0842 8.78875 18.1355 8.90795C18.1869 9.02714 18.262 9.13461 18.3563 9.22378C18.4506 9.31294 18.5621 9.38192 18.684 9.4265C18.8059 9.47108 18.9356 9.49032 19.0652 9.48305L27.8288 8.96285L27.8858 8.96105Z" fill="black"/>
<path d="M47.3002 54.9603C46.2412 54.9602 45.2003 54.6848 44.2798 54.1611C42.952 53.4045 42.1384 52.2681 41.9278 50.8749C41.6536 49.0605 42.3742 46.8195 44.0698 44.2149C44.8259 43.0573 45.6726 41.9615 46.6018 40.9377C46.6916 40.8418 46.8002 40.7653 46.9207 40.713C47.0413 40.6608 47.1712 40.6338 47.3026 40.6338C47.434 40.6338 47.564 40.6608 47.6846 40.713C47.8051 40.7653 47.9136 40.8418 48.0034 40.9377C48.9327 41.9615 49.7793 43.0573 50.5354 44.2149C52.231 46.8201 52.9516 49.0611 52.6774 50.8749C52.4668 52.2681 51.6532 53.4045 50.3248 54.1611C49.4032 54.6857 48.3607 54.9611 47.3002 54.9603ZM47.3002 43.0521C45.7954 44.8737 43.4716 48.2673 43.8244 50.5893C43.9474 51.4023 44.407 52.0245 45.2284 52.4931C45.8603 52.8509 46.5741 53.0389 47.3002 53.0389C48.0264 53.0389 48.7401 52.8509 49.372 52.4931C50.1934 52.0245 50.653 51.4023 50.776 50.5893C51.1288 48.2673 48.805 44.8743 47.3002 43.0521Z" fill="black"/>
</svg>
