<svg width="60" height="60" viewBox="0 0 60 60" fill="none" xmlns="http://www.w3.org/2000/svg">
<path d="M57.1875 36.5625H2.8125C2.56386 36.5625 2.3254 36.4637 2.14959 36.2879C1.97377 36.1121 1.875 35.8736 1.875 35.625V31.875C1.87474 31.748 1.90059 31.6222 1.95094 31.5056L4.76344 24.9431C4.83572 24.7745 4.95587 24.6308 5.10901 24.5298C5.26216 24.4289 5.44156 24.375 5.625 24.375H22.5C22.7486 24.375 22.9871 24.4738 23.1629 24.6496C23.3387 24.8254 23.4375 25.0639 23.4375 25.3125C23.4375 25.5611 23.3387 25.7996 23.1629 25.9754C22.9871 26.1512 22.7486 26.25 22.5 26.25H6.24281L3.75 32.0672V34.6875H56.25V32.0625L53.7572 26.25H37.5C37.2514 26.25 37.0129 26.1512 36.8371 25.9754C36.6613 25.7996 36.5625 25.5611 36.5625 25.3125C36.5625 25.0639 36.6613 24.8254 36.8371 24.6496C37.0129 24.4738 37.2514 24.375 37.5 24.375H54.375C54.5584 24.375 54.7379 24.4289 54.891 24.5298C55.0441 24.6308 55.1643 24.7745 55.2366 24.9431L58.0491 31.5056C58.0994 31.6222 58.1253 31.748 58.125 31.875V35.625C58.125 35.8736 58.0262 36.1121 57.8504 36.2879C57.6746 36.4637 57.4361 36.5625 57.1875 36.5625Z" fill="black"/>
<path d="M30 30.9375C28.7573 30.936 27.5658 30.4417 26.6871 29.5629C25.8083 28.6842 25.314 27.4927 25.3125 26.25C25.3125 24.6309 27.9534 16.875 30 16.875C32.0466 16.875 34.6875 24.6309 34.6875 26.25C34.686 27.4927 34.1917 28.6842 33.3129 29.5629C32.4342 30.4417 31.2427 30.936 30 30.9375ZM30 19.0416C29.0531 20.4047 27.1875 24.6834 27.1875 26.25C27.1875 26.9959 27.4838 27.7113 28.0113 28.2387C28.5387 28.7662 29.2541 29.0625 30 29.0625C30.7459 29.0625 31.4613 28.7662 31.9887 28.2387C32.5162 27.7113 32.8125 26.9959 32.8125 26.25C32.8125 24.6834 30.9469 20.4047 30 19.0416Z" fill="black"/>
<path d="M29.0625 27.1875C29.5803 27.1875 30 26.7678 30 26.25C30 25.7322 29.5803 25.3125 29.0625 25.3125C28.5447 25.3125 28.125 25.7322 28.125 26.25C28.125 26.7678 28.5447 27.1875 29.0625 27.1875Z" fill="black"/>
<path d="M30 24.375C30.5178 24.375 30.9375 23.9553 30.9375 23.4375C30.9375 22.9197 30.5178 22.5 30 22.5C29.4822 22.5 29.0625 22.9197 29.0625 23.4375C29.0625 23.9553 29.4822 24.375 30 24.375Z" fill="black"/>
<path d="M30 52.5C28.7573 52.4985 27.5658 52.0042 26.6871 51.1254C25.8083 50.2467 25.314 49.0552 25.3125 47.8125C25.3125 46.1934 27.9534 38.4375 30 38.4375C32.0466 38.4375 34.6875 46.1934 34.6875 47.8125C34.686 49.0552 34.1917 50.2467 33.3129 51.1254C32.4342 52.0042 31.2427 52.4985 30 52.5ZM30 40.6041C29.0531 41.9672 27.1875 46.2459 27.1875 47.8125C27.1875 48.5584 27.4838 49.2738 28.0113 49.8012C28.5387 50.3287 29.2541 50.625 30 50.625C30.7459 50.625 31.4613 50.3287 31.9887 49.8012C32.5162 49.2738 32.8125 48.5584 32.8125 47.8125C32.8125 46.2459 30.9469 41.9672 30 40.6041Z" fill="black"/>
<path d="M13.125 45.9374C11.8823 45.936 10.6908 45.4416 9.81208 44.5629C8.93333 43.6841 8.43899 42.4927 8.4375 41.2499C8.51423 40.1797 8.75419 39.1276 9.14906 38.1299C9.18611 38.0096 9.24704 37.8979 9.32819 37.8016C9.40935 37.7053 9.50908 37.6264 9.62142 37.5694C9.73377 37.5125 9.85643 37.4788 9.98208 37.4704C10.1077 37.4619 10.2338 37.4789 10.3528 37.5202C10.4717 37.5615 10.5811 37.6264 10.6745 37.711C10.7678 37.7955 10.8432 37.898 10.896 38.0123C10.9489 38.1266 10.9781 38.2504 10.9821 38.3763C10.9861 38.5022 10.9646 38.6275 10.9191 38.7449C10.6051 39.5488 10.401 40.3915 10.3125 41.2499C10.3125 41.9959 10.6088 42.7112 11.1363 43.2387C11.6637 43.7661 12.3791 44.0624 13.125 44.0624C13.8709 44.0624 14.5863 43.7661 15.1137 43.2387C15.6412 42.7112 15.9375 41.9959 15.9375 41.2499C15.849 40.3915 15.6449 39.5488 15.3309 38.7449C15.2854 38.6275 15.2639 38.5022 15.2679 38.3763C15.2719 38.2504 15.3011 38.1266 15.354 38.0123C15.4068 37.898 15.4822 37.7955 15.5755 37.711C15.6689 37.6264 15.7783 37.5615 15.8972 37.5202C16.0162 37.4789 16.1423 37.4619 16.2679 37.4704C16.3936 37.4788 16.5162 37.5125 16.6286 37.5694C16.7409 37.6264 16.8406 37.7053 16.9218 37.8016C17.003 37.8979 17.0639 38.0096 17.1009 38.1299C17.4958 39.1276 17.7358 40.1797 17.8125 41.2499C17.811 42.4927 17.3167 43.6841 16.4379 44.5629C15.5592 45.4416 14.3677 45.936 13.125 45.9374Z" fill="black"/>
<path d="M48.75 45.9374C47.5073 45.936 46.3158 45.4416 45.4371 44.5629C44.5583 43.6841 44.064 42.4927 44.0625 41.2499C44.1392 40.1797 44.3792 39.1276 44.7741 38.1299C44.8111 38.0096 44.872 37.8979 44.9532 37.8016C45.0344 37.7053 45.1341 37.6264 45.2464 37.5694C45.3588 37.5125 45.4814 37.4788 45.6071 37.4704C45.7327 37.4619 45.8588 37.4789 45.9778 37.5202C46.0967 37.5615 46.2061 37.6264 46.2995 37.711C46.3928 37.7955 46.4682 37.898 46.521 38.0123C46.5739 38.1266 46.6031 38.2504 46.6071 38.3763C46.6111 38.5022 46.5896 38.6275 46.5441 38.7449C46.2301 39.5488 46.026 40.3915 45.9375 41.2499C45.9375 41.9959 46.2338 42.7112 46.7613 43.2387C47.2887 43.7661 48.0041 44.0624 48.75 44.0624C49.4959 44.0624 50.2113 43.7661 50.7387 43.2387C51.2662 42.7112 51.5625 41.9959 51.5625 41.2499C51.474 40.3915 51.2699 39.5488 50.9559 38.7449C50.9104 38.6275 50.8889 38.5022 50.8929 38.3763C50.8969 38.2504 50.9261 38.1266 50.979 38.0123C51.0318 37.898 51.1072 37.7955 51.2005 37.711C51.2939 37.6264 51.4033 37.5615 51.5222 37.5202C51.6412 37.4789 51.7673 37.4619 51.8929 37.4704C52.0186 37.4788 52.1412 37.5125 52.2536 37.5694C52.3659 37.6264 52.4656 37.7053 52.5468 37.8016C52.628 37.8979 52.6889 38.0096 52.7259 38.1299C53.1208 39.1276 53.3608 40.1797 53.4375 41.2499C53.436 42.4927 52.9417 43.6841 52.0629 44.5629C51.1842 45.4416 49.9927 45.936 48.75 45.9374Z" fill="black"/>
<path d="M47.8125 21.5625C46.5698 21.561 45.3783 21.0667 44.4996 20.1879C43.6208 19.3092 43.1265 18.1177 43.125 16.875C43.125 15.2559 45.7659 7.5 47.8125 7.5C49.8591 7.5 52.5 15.2559 52.5 16.875C52.4985 18.1177 52.0042 19.3092 51.1254 20.1879C50.2467 21.0667 49.0552 21.561 47.8125 21.5625ZM47.8125 9.66656C46.8656 11.0297 45 15.3084 45 16.875C45 17.6209 45.2963 18.3363 45.8238 18.8637C46.3512 19.3912 47.0666 19.6875 47.8125 19.6875C48.5584 19.6875 49.2738 19.3912 49.8012 18.8637C50.3287 18.3363 50.625 17.6209 50.625 16.875C50.625 15.3084 48.7594 11.0297 47.8125 9.66656Z" fill="black"/>
<path d="M48.75 18.75C49.2678 18.75 49.6875 18.3303 49.6875 17.8125C49.6875 17.2947 49.2678 16.875 48.75 16.875C48.2322 16.875 47.8125 17.2947 47.8125 17.8125C47.8125 18.3303 48.2322 18.75 48.75 18.75Z" fill="black"/>
<path d="M46.875 16.875C47.3928 16.875 47.8125 16.4553 47.8125 15.9375C47.8125 15.4197 47.3928 15 46.875 15C46.3572 15 45.9375 15.4197 45.9375 15.9375C45.9375 16.4553 46.3572 16.875 46.875 16.875Z" fill="black"/>
<path d="M47.8125 15C48.3303 15 48.75 14.5803 48.75 14.0625C48.75 13.5447 48.3303 13.125 47.8125 13.125C47.2947 13.125 46.875 13.5447 46.875 14.0625C46.875 14.5803 47.2947 15 47.8125 15Z" fill="black"/>
<path d="M13.125 21.5625C11.8823 21.561 10.6908 21.0667 9.81208 20.1879C8.93333 19.3092 8.43899 18.1177 8.4375 16.875C8.4375 15.2559 11.0784 7.5 13.125 7.5C15.1716 7.5 17.8125 15.2559 17.8125 16.875C17.811 18.1177 17.3167 19.3092 16.4379 20.1879C15.5592 21.0667 14.3677 21.561 13.125 21.5625ZM13.125 9.66656C12.1781 11.0297 10.3125 15.3084 10.3125 16.875C10.3125 17.6209 10.6088 18.3363 11.1363 18.8637C11.6637 19.3912 12.3791 19.6875 13.125 19.6875C13.8709 19.6875 14.5863 19.3912 15.1137 18.8637C15.6412 18.3363 15.9375 17.6209 15.9375 16.875C15.9375 15.3084 14.0719 11.0297 13.125 9.66656Z" fill="black"/>
<path d="M12.1875 18.75C12.7053 18.75 13.125 18.3303 13.125 17.8125C13.125 17.2947 12.7053 16.875 12.1875 16.875C11.6697 16.875 11.25 17.2947 11.25 17.8125C11.25 18.3303 11.6697 18.75 12.1875 18.75Z" fill="black"/>
<path d="M14.0625 16.875C14.5803 16.875 15 16.4553 15 15.9375C15 15.4197 14.5803 15 14.0625 15C13.5447 15 13.125 15.4197 13.125 15.9375C13.125 16.4553 13.5447 16.875 14.0625 16.875Z" fill="black"/>
<path d="M13.125 14.0625C13.6428 14.0625 14.0625 13.6428 14.0625 13.125C14.0625 12.6072 13.6428 12.1875 13.125 12.1875C12.6072 12.1875 12.1875 12.6072 12.1875 13.125C12.1875 13.6428 12.6072 14.0625 13.125 14.0625Z" fill="black"/>
</svg>
