<svg width="60" height="60" viewBox="0 0 60 60" fill="none" xmlns="http://www.w3.org/2000/svg">
<path d="M29.4139 54.7433C27.3794 54.7457 25.3593 54.4013 23.4404 53.725C23.3243 53.684 23.2174 53.6206 23.1258 53.5383C23.0342 53.456 22.9597 53.3565 22.9066 53.2454C22.8535 53.1343 22.8227 53.0139 22.8161 52.8909C22.8095 52.768 22.8272 52.6449 22.8682 52.5288C22.9092 52.4127 22.9726 52.3058 23.0549 52.2142C23.1372 52.1226 23.2367 52.0481 23.3478 51.995C23.4588 51.9419 23.5793 51.9111 23.7022 51.9045C23.8252 51.8979 23.9482 51.9156 24.0643 51.9566C26.4883 52.8096 29.0814 53.0692 31.6263 52.7138C34.1713 52.3584 36.594 51.3983 38.6916 49.914C40.7891 48.4296 42.5004 46.4642 43.6821 44.1824C44.8638 41.9005 45.4815 39.3688 45.4834 36.7991C45.4834 28.93 32.6809 10.7614 29.4139 6.25348C26.147 10.7614 13.3447 28.93 13.3447 36.7991C13.3447 37.0477 13.246 37.2862 13.0701 37.462C12.8943 37.6378 12.6559 37.7366 12.4072 37.7366C12.1586 37.7366 11.9201 37.6378 11.7443 37.462C11.5685 37.2862 11.4697 37.0477 11.4697 36.7991C11.4697 27.205 27.9613 5.0441 28.6632 4.10543C28.7505 3.98873 28.8638 3.89399 28.9942 3.82873C29.1245 3.76347 29.2682 3.72949 29.4139 3.72949C29.5597 3.72949 29.7034 3.76347 29.8337 3.82873C29.964 3.89399 30.0774 3.98873 30.1646 4.10543C30.8678 5.04293 47.3584 27.205 47.3584 36.7991C47.353 41.5566 45.4607 46.1177 42.0966 49.4817C38.7325 52.8457 34.1714 54.738 29.4139 54.7433Z" fill="black"/>
<path d="M16.4894 56.2703C16.2702 56.2703 16.0578 56.1934 15.8894 56.053C15.7209 55.9127 15.607 55.7177 15.5674 55.502C15.5566 55.4448 14.3873 49.5646 8.5399 46.6975C8.38247 46.6203 8.24983 46.5005 8.15707 46.3517C8.06431 46.2029 8.01514 46.0311 8.01514 45.8557C8.01514 45.6804 8.06431 45.5086 8.15707 45.3598C8.24983 45.211 8.38247 45.0912 8.5399 45.014C14.4194 42.1312 15.5566 36.268 15.5674 36.2092C15.607 35.9935 15.7209 35.7985 15.8894 35.6582C16.0578 35.5178 16.2702 35.4409 16.4894 35.4409C16.7087 35.4409 16.9211 35.5177 17.0896 35.6581C17.2582 35.7985 17.3721 35.9935 17.4117 36.2092C17.4225 36.2662 18.5915 42.1466 24.4392 45.014C24.5966 45.0912 24.7293 45.211 24.822 45.3598C24.9148 45.5086 24.964 45.6804 24.964 45.8557C24.964 46.0311 24.9148 46.2029 24.822 46.3517C24.7293 46.5005 24.5966 46.6203 24.4392 46.6975C18.5594 49.5803 17.4225 55.443 17.4117 55.502C17.3721 55.7177 17.2582 55.9127 17.0896 56.0531C16.9211 56.1935 16.7087 56.2703 16.4894 56.2703ZM10.8644 45.8556C13.3377 47.4474 15.2926 49.7265 16.4894 52.4132C17.6864 49.7265 19.6413 47.4475 22.1144 45.8556C19.6411 44.2639 17.6861 41.9848 16.4894 39.298C15.2928 41.9849 13.338 44.264 10.8644 45.8556Z" fill="black"/>
<path d="M51.0467 30.1408C50.8273 30.1408 50.6149 30.0639 50.4464 29.9235C50.2779 29.7831 50.164 29.588 50.1244 29.3723C49.8507 28.2399 49.3316 27.1815 48.6038 26.2719C47.876 25.3623 46.9572 24.6236 45.9125 24.1082C45.755 24.031 45.6224 23.9112 45.5296 23.7624C45.4369 23.6136 45.3877 23.4418 45.3877 23.2664C45.3877 23.0911 45.4369 22.9193 45.5296 22.7705C45.6224 22.6217 45.755 22.5019 45.9125 22.4247C46.9548 21.9059 47.8716 21.1663 48.599 20.2572C49.3264 19.3481 49.8469 18.2914 50.1244 17.1606C50.1639 16.9449 50.2779 16.7498 50.4464 16.6094C50.6148 16.469 50.8272 16.3921 51.0466 16.3921C51.2659 16.3921 51.4783 16.469 51.6468 16.6094C51.8153 16.7498 51.9292 16.9449 51.9687 17.1606C52.2425 18.293 52.7617 19.3513 53.4896 20.261C54.2174 21.1706 55.1362 21.9092 56.1809 22.4247C56.3383 22.5019 56.471 22.6217 56.5637 22.7705C56.6565 22.9193 56.7057 23.0911 56.7057 23.2664C56.7057 23.4418 56.6565 23.6136 56.5637 23.7624C56.471 23.9112 56.3383 24.031 56.1809 24.1082C55.1386 24.627 54.2218 25.3667 53.4943 26.2758C52.7669 27.1849 52.2463 28.2415 51.9687 29.3723C51.9292 29.588 51.8153 29.783 51.6468 29.9234C51.4783 30.0638 51.266 30.1408 51.0467 30.1408ZM48.1468 23.2666C49.3538 24.1386 50.3457 25.2748 51.0467 26.5886C51.7476 25.2744 52.7395 24.1378 53.9468 23.2656C52.7395 22.3934 51.7475 21.2567 51.0467 19.9424C50.346 21.2566 49.3542 22.3932 48.1472 23.2656L48.1468 23.2666Z" fill="black"/>
<path d="M8.95291 18.264H8.94916C8.73061 18.2635 8.5191 18.1866 8.3513 18.0466C8.18349 17.9066 8.06997 17.7123 8.03041 17.4973C7.75647 16.3652 7.23723 15.307 6.50938 14.3975C5.78153 13.4881 4.86284 12.7496 3.81822 12.2342C3.66079 12.157 3.52815 12.0372 3.43539 11.8884C3.34263 11.7396 3.29346 11.5678 3.29346 11.3924C3.29346 11.2171 3.34263 11.0453 3.43539 10.8965C3.52815 10.7477 3.66079 10.6279 3.81822 10.5507C4.86359 10.0348 5.7828 9.29545 6.5108 8.38498C7.23881 7.47452 7.75782 6.41518 8.03111 5.28193C8.07214 5.06745 8.18661 4.87397 8.35483 4.73474C8.52306 4.59551 8.73454 4.51924 8.95291 4.51904H8.95689C9.17537 4.51975 9.38674 4.59675 9.55449 4.73672C9.72223 4.8767 9.83583 5.07086 9.87564 5.28568C10.1491 6.41786 10.668 7.47616 11.3955 8.38577C12.1229 9.29538 13.0413 10.0341 14.0857 10.5497C14.2432 10.6269 14.3758 10.7467 14.4686 10.8955C14.5613 11.0443 14.6105 11.2162 14.6105 11.3915C14.6105 11.5668 14.5613 11.7387 14.4686 11.8875C14.3758 12.0363 14.2432 12.1561 14.0857 12.2333C13.0406 12.7491 12.1216 13.4883 11.3938 14.3986C10.666 15.3089 10.1472 16.3681 9.874 17.5011C9.83296 17.7154 9.71858 17.9088 9.55051 18.048C9.38243 18.1872 9.17115 18.2636 8.95291 18.264ZM6.05228 11.3904C7.25988 12.2629 8.25203 13.3999 8.95291 14.7146C9.6535 13.4001 10.6452 12.2631 11.8524 11.3904C10.6454 10.5184 9.65372 9.38217 8.95291 8.06842C8.25184 9.38235 7.25969 10.5186 6.05228 11.3904Z" fill="black"/>
</svg>
