<svg width="61" height="61" viewBox="0 0 61 61" fill="none" xmlns="http://www.w3.org/2000/svg">
<path fill-rule="evenodd" clip-rule="evenodd" d="M30.5 13V14.625C25.925 15.55 21.9625 18.15 19.25 21.75H13C12.3125 21.75 11.75 22.3125 11.75 23C11.75 23.6875 12.3125 24.25 13 24.25H17.6625C17.2375 25.05 16.875 25.8875 16.5625 26.75H10.5C9.8125 26.75 9.25 27.3125 9.25 28C9.25 28.6875 9.8125 29.25 10.5 29.25H15.875C15.7125 30.0625 15.6 30.9 15.5375 31.75H6.75C6.0625 31.75 5.5 32.3125 5.5 33C5.5 33.6875 6.0625 34.25 6.75 34.25H15.5375C15.6 35.1 15.7125 35.9375 15.875 36.75H10.5C9.8125 36.75 9.25 37.3125 9.25 38C9.25 38.6875 9.8125 39.25 10.5 39.25H16.5625C16.875 40.1125 17.2375 40.95 17.6625 41.75H13C12.3125 41.75 11.75 42.3125 11.75 43C11.75 43.6875 12.3125 44.25 13 44.25H19.25C22.675 48.8 28.1125 51.75 34.25 51.75C35.95 51.75 37.5875 51.525 39.1625 51.1C40.675 53.725 43.5125 55.5 46.75 55.5C51.575 55.5 55.5 51.575 55.5 46.75C55.5 43.8 54.0375 41.1875 51.8 39.6C52.575 37.55 53 35.325 53 33C53 23.9375 46.55 16.3625 38 14.625V13H39.25C41.325 13 43 11.325 43 9.25C43 7.175 41.325 5.5 39.25 5.5H29.25C27.175 5.5 25.5 7.175 25.5 9.25C25.5 11.325 27.175 13 29.25 13H30.5ZM46.75 40.5C50.2 40.5 53 43.3 53 46.75C53 50.2 50.2 53 46.75 53C43.3 53 40.5 50.2 40.5 46.75C40.5 43.3 43.3 40.5 46.75 40.5ZM43.3625 47.6375L45.8625 50.1375C46.15 50.425 46.55 50.55 46.95 50.4875C47.35 50.425 47.6875 50.175 47.8625 49.8125L50.3625 44.8125C50.675 44.2 50.425 43.4375 49.8 43.1375C49.1875 42.825 48.425 43.075 48.125 43.7L46.4 47.15L45.125 45.875C44.6375 45.3875 43.85 45.3875 43.35 45.875C42.8625 46.3625 42.8625 47.15 43.35 47.65L43.3625 47.6375ZM49.55 38.4625C50.1625 36.7625 50.4875 34.9125 50.4875 33C50.4875 24.0375 43.2 16.75 34.2375 16.75C25.275 16.75 17.9875 24.0375 17.9875 33C17.9875 41.9625 25.275 49.25 34.2375 49.25C35.6125 49.25 36.95 49.075 38.225 48.7625C38.075 48.1125 37.9875 47.45 37.9875 46.75C37.9875 46.575 37.9875 46.4 38 46.225C36.8 46.5625 35.5375 46.75 34.2375 46.75C26.65 46.75 20.4875 40.5875 20.4875 33C20.4875 25.4125 26.65 19.25 34.2375 19.25C41.825 19.25 47.9875 25.4125 47.9875 33C47.9875 34.7625 47.65 36.45 47.05 38C47.925 38.025 48.7625 38.1875 49.55 38.45V38.4625ZM44.1125 38.4C45 36.8 45.5 34.95 45.5 33C45.5 26.7875 40.4625 21.75 34.25 21.75C28.0375 21.75 23 26.7875 23 33C23 39.2125 28.0375 44.25 34.25 44.25C35.825 44.25 37.325 43.925 38.6875 43.3375C39.6875 41 41.6625 39.175 44.1125 38.4ZM6.75 36.75C7.4375 36.75 8 37.3125 8 38C8 38.6875 7.4375 39.25 6.75 39.25C6.0625 39.25 5.5 38.6875 5.5 38C5.5 37.3125 6.0625 36.75 6.75 36.75ZM33 24.25V33C33 33.3375 33.1375 33.65 33.3625 33.8875L37.1125 37.6375C37.6 38.125 38.3875 38.125 38.8875 37.6375C39.375 37.15 39.375 36.3625 38.8875 35.8625L35.5 32.475V24.2375C35.5 23.55 34.9375 22.9875 34.25 22.9875C33.5625 22.9875 33 23.55 33 24.2375V24.25ZM6.75 26.75C7.4375 26.75 8 27.3125 8 28C8 28.6875 7.4375 29.25 6.75 29.25C6.0625 29.25 5.5 28.6875 5.5 28C5.5 27.3125 6.0625 26.75 6.75 26.75ZM35.5 14.2875V13H33V14.2875C33.4125 14.2625 33.825 14.25 34.25 14.25C34.675 14.25 35.0875 14.2625 35.5 14.2875ZM40.5 9.25C40.5 9.9375 39.9375 10.5 39.25 10.5H29.25C28.5625 10.5 28 9.9375 28 9.25C28 8.5625 28.5625 8 29.25 8H39.25C39.9375 8 40.5 8.5625 40.5 9.25Z" fill="black"/>
</svg>
