<svg width="44" height="46" viewBox="0 0 44 46" fill="none" xmlns="http://www.w3.org/2000/svg">
<path d="M31.5161 21.6643C28.42 21.6643 25.9109 19.0412 25.9109 15.8043C25.9109 14.862 26.1229 13.9758 26.498 13.1889C27.5333 11.0217 30.1202 7.47661 31.5161 5.30176C32.9119 7.47661 35.5014 11.0217 36.5343 13.1889C36.9119 13.9758 37.1238 14.862 37.1238 15.8043C37.1238 19.0411 34.6123 21.6643 31.5161 21.6643Z" stroke="black" stroke-width="1.5625" stroke-miterlimit="10" stroke-linecap="round" stroke-linejoin="round"/>
<path d="M32.6879 21.5344C32.6976 21.7076 32.7001 21.8832 32.7001 22.059C32.7001 28.1609 27.9694 33.1066 22.1328 33.1066C16.2961 33.1066 11.5655 28.1609 11.5655 22.059C11.5655 20.2864 11.965 18.6133 12.6738 17.1285C14.6226 13.0461 19.5019 6.36614 22.1327 2.26343C23.6283 4.59622 25.8549 7.76429 27.8523 10.8153" stroke="black" stroke-width="1.5625" stroke-miterlimit="10" stroke-linecap="round" stroke-linejoin="round"/>
<path d="M33.5283 31.0006C36.2346 31.8639 37.8959 33.0328 37.8959 34.319C37.8959 36.9802 30.778 39.1373 21.9988 39.1373C13.2196 39.1373 6.10156 36.9802 6.10156 34.3189C6.10156 33.0328 7.76291 31.8639 10.4717 31.0005" stroke="black" stroke-width="1.5625" stroke-miterlimit="10" stroke-linecap="round" stroke-linejoin="round"/>
<path d="M36.1225 27.2185C40.4294 28.9528 43.1406 31.4664 43.1406 34.2652C43.1406 39.4962 33.6744 43.7364 21.9988 43.7364C10.3232 43.7364 0.859375 39.4962 0.859375 34.2652C0.859375 31.4664 3.56821 28.9528 7.87746 27.2185" stroke="black" stroke-width="1.5625" stroke-miterlimit="10" stroke-linecap="round" stroke-linejoin="round"/>
</svg>
