<svg width="60" height="60" viewBox="0 0 60 60" fill="none" xmlns="http://www.w3.org/2000/svg">
<path d="M52.1052 39.1078H42.8736C42.619 39.1078 42.3748 39.0066 42.1948 38.8266C42.0147 38.6466 41.9136 38.4024 41.9136 38.1478V31.8658H36.5994C35.7835 32.844 34.7626 33.631 33.609 34.1711C32.4553 34.7112 31.197 34.9911 29.9232 34.9911C28.6494 34.9911 27.3911 34.7112 26.2374 34.1711C25.0838 33.631 24.0629 32.844 23.247 31.8658H17.9262V33.3538C17.9262 33.6084 17.8251 33.8526 17.645 34.0326C17.465 34.2126 17.2208 34.3138 16.9662 34.3138H7.89359C7.63899 34.3138 7.39481 34.2126 7.21477 34.0326C7.03474 33.8526 6.93359 33.6084 6.93359 33.3538V19.2256C6.93359 18.971 7.03474 18.7268 7.21477 18.5468C7.39481 18.3667 7.63899 18.2656 7.89359 18.2656H16.9662C17.2208 18.2656 17.465 18.3667 17.645 18.5468C17.8251 18.7268 17.9262 18.971 17.9262 19.2256V20.7142H23.2452C24.0611 19.7359 25.082 18.9489 26.2356 18.4089C27.3893 17.8688 28.6476 17.5889 29.9214 17.5889C31.1952 17.5889 32.4535 17.8688 33.6071 18.4089C34.7608 18.9489 35.7817 19.7359 36.5976 20.7142H42.8736C48.4932 20.7142 53.0652 25.2862 53.0652 30.9058V38.1478C53.0652 38.4024 52.9641 38.6466 52.784 38.8266C52.604 39.0066 52.3598 39.1078 52.1052 39.1078ZM43.8336 37.1878H51.1452V30.9058C51.1452 26.3458 47.4348 22.6342 42.8736 22.6342H36.1332C35.9835 22.6342 35.8359 22.5992 35.7021 22.532C35.5683 22.4648 35.4521 22.3673 35.3628 22.2472C34.7319 21.3985 33.9113 20.7091 32.9665 20.2342C32.0217 19.7592 30.9789 19.5119 29.9214 19.5119C28.8639 19.5119 27.8211 19.7592 26.8763 20.2342C25.9315 20.7091 25.1108 21.3985 24.48 22.2472C24.3907 22.3672 24.2746 22.4647 24.1409 22.5319C24.0073 22.5991 23.8598 22.6341 23.7102 22.6342H16.9662C16.7116 22.6342 16.4674 22.533 16.2874 22.353C16.1073 22.173 16.0062 21.9288 16.0062 21.6742V20.1856H8.85359V32.3938H16.0062V30.9058C16.0062 30.6512 16.1073 30.407 16.2874 30.227C16.4674 30.0469 16.7116 29.9458 16.9662 29.9458H23.7102C23.8596 29.9459 24.007 29.9809 24.1405 30.0479C24.2741 30.115 24.3901 30.2124 24.4794 30.3322C25.1102 31.1809 25.9309 31.8702 26.8757 32.3452C27.8205 32.8201 28.8633 33.0675 29.9208 33.0675C30.9783 33.0675 32.0211 32.8201 32.9659 32.3452C33.9107 31.8702 34.7313 31.1809 35.3622 30.3322C35.4516 30.2122 35.5678 30.1148 35.7016 30.0477C35.8354 29.9806 35.9829 29.9457 36.1326 29.9458H42.8736C43.1282 29.9458 43.3724 30.0469 43.5524 30.227C43.7325 30.407 43.8336 30.6512 43.8336 30.9058V37.1878Z" fill="white"/>
<path d="M16.9659 31.8655C16.7113 31.8655 16.4671 31.7643 16.287 31.5843C16.107 31.4043 16.0059 31.1601 16.0059 30.9055V21.6739C16.0059 21.4193 16.107 21.1751 16.287 20.995C16.4671 20.815 16.7113 20.7139 16.9659 20.7139C17.2205 20.7139 17.4646 20.815 17.6447 20.995C17.8247 21.1751 17.9259 21.4193 17.9259 21.6739V30.9055C17.9259 31.1601 17.8247 31.4043 17.6447 31.5843C17.4646 31.7643 17.2205 31.8655 16.9659 31.8655Z" fill="white"/>
<path d="M32.1182 19.8279C31.8636 19.8279 31.6194 19.7268 31.4394 19.5467C31.2593 19.3667 31.1582 19.1225 31.1582 18.8679V9.92191C31.1582 9.66731 31.2593 9.42313 31.4394 9.24309C31.6194 9.06306 31.8636 8.96191 32.1182 8.96191C32.3728 8.96191 32.617 9.06306 32.797 9.24309C32.9771 9.42313 33.0782 9.66731 33.0782 9.92191V18.8679C33.0782 19.1225 32.9771 19.3667 32.797 19.5467C32.617 19.7268 32.3728 19.8279 32.1182 19.8279Z" fill="white"/>
<path d="M27.8799 19.7835C27.6253 19.7835 27.3811 19.6824 27.2011 19.5023C27.0211 19.3223 26.9199 19.0781 26.9199 18.8235V9.92191C26.9199 9.66731 27.0211 9.42313 27.2011 9.24309C27.3811 9.06306 27.6253 8.96191 27.8799 8.96191C28.1345 8.96191 28.3787 9.06306 28.5587 9.24309C28.7388 9.42313 28.8399 9.66731 28.8399 9.92191V18.8235C28.8399 19.0781 28.7388 19.3223 28.5587 19.5023C28.3787 19.6824 28.1345 19.7835 27.8799 19.7835Z" fill="white"/>
<path d="M29.9991 12.0215C29.5197 12.0221 29.0454 11.9237 28.6059 11.7324C28.1664 11.541 27.7711 11.261 27.4449 10.9097L19.1787 11.4005C18.788 11.4231 18.3967 11.3657 18.0289 11.2317C17.6612 11.0978 17.3247 10.8901 17.04 10.6214C16.7554 10.3528 16.5286 10.0288 16.3736 9.66942C16.2186 9.31001 16.1387 8.92274 16.1387 8.53133C16.1387 8.13993 16.2186 7.75265 16.3736 7.39325C16.5286 7.03384 16.7554 6.70988 17.04 6.44123C17.3247 6.17258 17.6612 5.9649 18.0289 5.83093C18.3967 5.69696 18.788 5.63952 19.1787 5.66213L27.4449 6.15293C27.7715 5.80213 28.1668 5.52235 28.6062 5.33105C29.0457 5.13975 29.5198 5.04102 29.9991 5.04102C30.4784 5.04102 30.9525 5.13975 31.392 5.33105C31.8314 5.52235 32.2267 5.80213 32.5533 6.15293L40.8195 5.66213C41.2103 5.63952 41.6015 5.69696 41.9693 5.83093C42.337 5.9649 42.6735 6.17258 42.9582 6.44123C43.2428 6.70988 43.4696 7.03384 43.6246 7.39325C43.7796 7.75265 43.8595 8.13993 43.8595 8.53133C43.8595 8.92274 43.7796 9.31001 43.6246 9.66942C43.4696 10.0288 43.2428 10.3528 42.9582 10.6214C42.6735 10.8901 42.337 11.0978 41.9693 11.2317C41.6015 11.3657 41.2103 11.4231 40.8195 11.4005L32.5533 10.9103C32.227 11.2615 31.8318 11.5414 31.3922 11.7326C30.9527 11.9238 30.4784 12.0222 29.9991 12.0215ZM27.8853 8.96153C28.0442 8.9615 28.2006 9.00089 28.3405 9.07618C28.4804 9.15147 28.5994 9.26031 28.6869 9.39293C28.8296 9.61068 29.0243 9.78949 29.2534 9.91323C29.4825 10.037 29.7387 10.1018 29.9991 10.1018C30.2595 10.1018 30.5157 10.037 30.7448 9.91323C30.9739 9.78949 31.1686 9.61068 31.3113 9.39293C31.4041 9.25226 31.5323 9.1385 31.683 9.06309C31.8338 8.98768 32.0017 8.95328 32.1699 8.96333L40.9335 9.48353C41.0631 9.49081 41.1928 9.47157 41.3147 9.42699C41.4366 9.38241 41.5481 9.31343 41.6424 9.22426C41.7367 9.1351 41.8118 9.02763 41.8632 8.90844C41.9145 8.78924 41.941 8.66082 41.941 8.53103C41.941 8.40125 41.9145 8.27283 41.8632 8.15363C41.8118 8.03444 41.7367 7.92697 41.6424 7.83781C41.5481 7.74864 41.4366 7.67966 41.3147 7.63508C41.1928 7.5905 41.0631 7.57126 40.9335 7.57853L32.1699 8.10053C32.0016 8.11053 31.8337 8.07603 31.6829 8.00051C31.5322 7.92499 31.404 7.81112 31.3113 7.67033C31.1684 7.45285 30.9736 7.27429 30.7446 7.15074C30.5155 7.02718 30.2594 6.96249 29.9991 6.96249C29.7389 6.96249 29.4827 7.02718 29.2536 7.15074C29.0246 7.27429 28.8298 7.45285 28.6869 7.67033C28.5942 7.81112 28.466 7.92499 28.3153 8.00051C28.1645 8.07603 27.9966 8.11053 27.8283 8.10053L19.0647 7.57853C18.9351 7.57126 18.8054 7.5905 18.6835 7.63508C18.5616 7.67966 18.4501 7.74864 18.3558 7.83781C18.2615 7.92697 18.1864 8.03444 18.1351 8.15363C18.0837 8.27283 18.0572 8.40125 18.0572 8.53103C18.0572 8.66082 18.0837 8.78924 18.1351 8.90844C18.1864 9.02763 18.2615 9.1351 18.3558 9.22426C18.4501 9.31343 18.5616 9.38241 18.6835 9.42699C18.8054 9.47157 18.9351 9.49081 19.0647 9.48353L27.8283 8.96333L27.8853 8.96153Z" fill="white"/>
<path d="M47.3002 54.9603C46.2412 54.9602 45.2003 54.6848 44.2798 54.1611C42.952 53.4045 42.1384 52.2681 41.9278 50.8749C41.6536 49.0605 42.3742 46.8195 44.0698 44.2149C44.8259 43.0573 45.6726 41.9615 46.6018 40.9377C46.6916 40.8418 46.8002 40.7653 46.9207 40.713C47.0413 40.6608 47.1712 40.6338 47.3026 40.6338C47.434 40.6338 47.564 40.6608 47.6846 40.713C47.8051 40.7653 47.9136 40.8418 48.0034 40.9377C48.9327 41.9615 49.7793 43.0573 50.5354 44.2149C52.231 46.8201 52.9516 49.0611 52.6774 50.8749C52.4668 52.2681 51.6532 53.4045 50.3248 54.1611C49.4032 54.6857 48.3607 54.9611 47.3002 54.9603ZM47.3002 43.0521C45.7954 44.8737 43.4716 48.2673 43.8244 50.5893C43.9474 51.4023 44.407 52.0245 45.2284 52.4931C45.8603 52.8509 46.5741 53.0389 47.3002 53.0389C48.0264 53.0389 48.7401 52.8509 49.372 52.4931C50.1934 52.0245 50.653 51.4023 50.776 50.5893C51.1288 48.2673 48.805 44.8743 47.3002 43.0521Z" fill="white"/>
</svg>
