<svg width="60" height="61" viewBox="0 0 60 61" fill="none" xmlns="http://www.w3.org/2000/svg">
<path d="M57.1875 37.0625H2.8125C2.56386 37.0625 2.3254 36.9637 2.14959 36.7879C1.97377 36.6121 1.875 36.3736 1.875 36.125V32.375C1.87474 32.248 1.90059 32.1222 1.95094 32.0056L4.76344 25.4431C4.83572 25.2745 4.95587 25.1308 5.10901 25.0298C5.26216 24.9289 5.44156 24.875 5.625 24.875H22.5C22.7486 24.875 22.9871 24.9738 23.1629 25.1496C23.3387 25.3254 23.4375 25.5639 23.4375 25.8125C23.4375 26.0611 23.3387 26.2996 23.1629 26.4754C22.9871 26.6512 22.7486 26.75 22.5 26.75H6.24281L3.75 32.5672V35.1875H56.25V32.5625L53.7572 26.75H37.5C37.2514 26.75 37.0129 26.6512 36.8371 26.4754C36.6613 26.2996 36.5625 26.0611 36.5625 25.8125C36.5625 25.5639 36.6613 25.3254 36.8371 25.1496C37.0129 24.9738 37.2514 24.875 37.5 24.875H54.375C54.5584 24.875 54.7379 24.9289 54.891 25.0298C55.0441 25.1308 55.1643 25.2745 55.2366 25.4431L58.0491 32.0056C58.0994 32.1222 58.1253 32.248 58.125 32.375V36.125C58.125 36.3736 58.0262 36.6121 57.8504 36.7879C57.6746 36.9637 57.4361 37.0625 57.1875 37.0625Z" fill="black"/>
<path d="M30 31.4375C28.7573 31.436 27.5658 30.9417 26.6871 30.0629C25.8083 29.1842 25.314 27.9927 25.3125 26.75C25.3125 25.1309 27.9534 17.375 30 17.375C32.0466 17.375 34.6875 25.1309 34.6875 26.75C34.686 27.9927 34.1917 29.1842 33.3129 30.0629C32.4342 30.9417 31.2427 31.436 30 31.4375ZM30 19.5416C29.0531 20.9047 27.1875 25.1834 27.1875 26.75C27.1875 27.4959 27.4838 28.2113 28.0113 28.7387C28.5387 29.2662 29.2541 29.5625 30 29.5625C30.7459 29.5625 31.4613 29.2662 31.9887 28.7387C32.5162 28.2113 32.8125 27.4959 32.8125 26.75C32.8125 25.1834 30.9469 20.9047 30 19.5416Z" fill="black"/>
<path d="M29.0625 27.6875C29.5803 27.6875 30 27.2678 30 26.75C30 26.2322 29.5803 25.8125 29.0625 25.8125C28.5447 25.8125 28.125 26.2322 28.125 26.75C28.125 27.2678 28.5447 27.6875 29.0625 27.6875Z" fill="black"/>
<path d="M30 24.875C30.5178 24.875 30.9375 24.4553 30.9375 23.9375C30.9375 23.4197 30.5178 23 30 23C29.4822 23 29.0625 23.4197 29.0625 23.9375C29.0625 24.4553 29.4822 24.875 30 24.875Z" fill="black"/>
<path d="M30 53C28.7573 52.9985 27.5658 52.5042 26.6871 51.6254C25.8083 50.7467 25.314 49.5552 25.3125 48.3125C25.3125 46.6934 27.9534 38.9375 30 38.9375C32.0466 38.9375 34.6875 46.6934 34.6875 48.3125C34.686 49.5552 34.1917 50.7467 33.3129 51.6254C32.4342 52.5042 31.2427 52.9985 30 53ZM30 41.1041C29.0531 42.4672 27.1875 46.7459 27.1875 48.3125C27.1875 49.0584 27.4838 49.7738 28.0113 50.3012C28.5387 50.8287 29.2541 51.125 30 51.125C30.7459 51.125 31.4613 50.8287 31.9887 50.3012C32.5162 49.7738 32.8125 49.0584 32.8125 48.3125C32.8125 46.7459 30.9469 42.4672 30 41.1041Z" fill="black"/>
<path d="M13.125 46.4374C11.8823 46.436 10.6908 45.9416 9.81208 45.0629C8.93333 44.1841 8.43899 42.9927 8.4375 41.7499C8.51423 40.6797 8.75419 39.6276 9.14906 38.6299C9.18611 38.5096 9.24704 38.3979 9.32819 38.3016C9.40935 38.2053 9.50908 38.1264 9.62142 38.0694C9.73377 38.0125 9.85643 37.9788 9.98208 37.9704C10.1077 37.9619 10.2338 37.9789 10.3528 38.0202C10.4717 38.0615 10.5811 38.1264 10.6745 38.211C10.7678 38.2955 10.8432 38.398 10.896 38.5123C10.9489 38.6266 10.9781 38.7504 10.9821 38.8763C10.9861 39.0022 10.9646 39.1275 10.9191 39.2449C10.6051 40.0488 10.401 40.8915 10.3125 41.7499C10.3125 42.4959 10.6088 43.2112 11.1363 43.7387C11.6637 44.2661 12.3791 44.5624 13.125 44.5624C13.8709 44.5624 14.5863 44.2661 15.1137 43.7387C15.6412 43.2112 15.9375 42.4959 15.9375 41.7499C15.849 40.8915 15.6449 40.0488 15.3309 39.2449C15.2854 39.1275 15.2639 39.0022 15.2679 38.8763C15.2719 38.7504 15.3011 38.6266 15.354 38.5123C15.4068 38.398 15.4822 38.2955 15.5755 38.211C15.6689 38.1264 15.7783 38.0615 15.8972 38.0202C16.0162 37.9789 16.1423 37.9619 16.2679 37.9704C16.3936 37.9788 16.5162 38.0125 16.6286 38.0694C16.7409 38.1264 16.8406 38.2053 16.9218 38.3016C17.003 38.3979 17.0639 38.5096 17.1009 38.6299C17.4958 39.6276 17.7358 40.6797 17.8125 41.7499C17.811 42.9927 17.3167 44.1841 16.4379 45.0629C15.5592 45.9416 14.3677 46.436 13.125 46.4374Z" fill="black"/>
<path d="M48.75 46.4374C47.5073 46.436 46.3158 45.9416 45.4371 45.0629C44.5583 44.1841 44.064 42.9927 44.0625 41.7499C44.1392 40.6797 44.3792 39.6276 44.7741 38.6299C44.8111 38.5096 44.872 38.3979 44.9532 38.3016C45.0344 38.2053 45.1341 38.1264 45.2464 38.0694C45.3588 38.0125 45.4814 37.9788 45.6071 37.9704C45.7327 37.9619 45.8588 37.9789 45.9778 38.0202C46.0967 38.0615 46.2061 38.1264 46.2995 38.211C46.3928 38.2955 46.4682 38.398 46.521 38.5123C46.5739 38.6266 46.6031 38.7504 46.6071 38.8763C46.6111 39.0022 46.5896 39.1275 46.5441 39.2449C46.2301 40.0488 46.026 40.8915 45.9375 41.7499C45.9375 42.4959 46.2338 43.2112 46.7613 43.7387C47.2887 44.2661 48.0041 44.5624 48.75 44.5624C49.4959 44.5624 50.2113 44.2661 50.7387 43.7387C51.2662 43.2112 51.5625 42.4959 51.5625 41.7499C51.474 40.8915 51.2699 40.0488 50.9559 39.2449C50.9104 39.1275 50.8889 39.0022 50.8929 38.8763C50.8969 38.7504 50.9261 38.6266 50.979 38.5123C51.0318 38.398 51.1072 38.2955 51.2005 38.211C51.2939 38.1264 51.4033 38.0615 51.5222 38.0202C51.6412 37.9789 51.7673 37.9619 51.8929 37.9704C52.0186 37.9788 52.1412 38.0125 52.2536 38.0694C52.3659 38.1264 52.4656 38.2053 52.5468 38.3016C52.628 38.3979 52.6889 38.5096 52.7259 38.6299C53.1208 39.6276 53.3608 40.6797 53.4375 41.7499C53.436 42.9927 52.9417 44.1841 52.0629 45.0629C51.1842 45.9416 49.9927 46.436 48.75 46.4374Z" fill="black"/>
<path d="M47.8125 22.0625C46.5698 22.061 45.3783 21.5667 44.4996 20.6879C43.6208 19.8092 43.1265 18.6177 43.125 17.375C43.125 15.7559 45.7659 8 47.8125 8C49.8591 8 52.5 15.7559 52.5 17.375C52.4985 18.6177 52.0042 19.8092 51.1254 20.6879C50.2467 21.5667 49.0552 22.061 47.8125 22.0625ZM47.8125 10.1666C46.8656 11.5297 45 15.8084 45 17.375C45 18.1209 45.2963 18.8363 45.8238 19.3637C46.3512 19.8912 47.0666 20.1875 47.8125 20.1875C48.5584 20.1875 49.2738 19.8912 49.8012 19.3637C50.3287 18.8363 50.625 18.1209 50.625 17.375C50.625 15.8084 48.7594 11.5297 47.8125 10.1666Z" fill="black"/>
<path d="M48.75 19.25C49.2678 19.25 49.6875 18.8303 49.6875 18.3125C49.6875 17.7947 49.2678 17.375 48.75 17.375C48.2322 17.375 47.8125 17.7947 47.8125 18.3125C47.8125 18.8303 48.2322 19.25 48.75 19.25Z" fill="black"/>
<path d="M46.875 17.375C47.3928 17.375 47.8125 16.9553 47.8125 16.4375C47.8125 15.9197 47.3928 15.5 46.875 15.5C46.3572 15.5 45.9375 15.9197 45.9375 16.4375C45.9375 16.9553 46.3572 17.375 46.875 17.375Z" fill="black"/>
<path d="M47.8125 15.5C48.3303 15.5 48.75 15.0803 48.75 14.5625C48.75 14.0447 48.3303 13.625 47.8125 13.625C47.2947 13.625 46.875 14.0447 46.875 14.5625C46.875 15.0803 47.2947 15.5 47.8125 15.5Z" fill="black"/>
<path d="M13.125 22.0625C11.8823 22.061 10.6908 21.5667 9.81208 20.6879C8.93333 19.8092 8.43899 18.6177 8.4375 17.375C8.4375 15.7559 11.0784 8 13.125 8C15.1716 8 17.8125 15.7559 17.8125 17.375C17.811 18.6177 17.3167 19.8092 16.4379 20.6879C15.5592 21.5667 14.3677 22.061 13.125 22.0625ZM13.125 10.1666C12.1781 11.5297 10.3125 15.8084 10.3125 17.375C10.3125 18.1209 10.6088 18.8363 11.1363 19.3637C11.6637 19.8912 12.3791 20.1875 13.125 20.1875C13.8709 20.1875 14.5863 19.8912 15.1137 19.3637C15.6412 18.8363 15.9375 18.1209 15.9375 17.375C15.9375 15.8084 14.0719 11.5297 13.125 10.1666Z" fill="black"/>
<path d="M12.1875 19.25C12.7053 19.25 13.125 18.8303 13.125 18.3125C13.125 17.7947 12.7053 17.375 12.1875 17.375C11.6697 17.375 11.25 17.7947 11.25 18.3125C11.25 18.8303 11.6697 19.25 12.1875 19.25Z" fill="black"/>
<path d="M14.0625 17.375C14.5803 17.375 15 16.9553 15 16.4375C15 15.9197 14.5803 15.5 14.0625 15.5C13.5447 15.5 13.125 15.9197 13.125 16.4375C13.125 16.9553 13.5447 17.375 14.0625 17.375Z" fill="black"/>
<path d="M13.125 14.5625C13.6428 14.5625 14.0625 14.1428 14.0625 13.625C14.0625 13.1072 13.6428 12.6875 13.125 12.6875C12.6072 12.6875 12.1875 13.1072 12.1875 13.625C12.1875 14.1428 12.6072 14.5625 13.125 14.5625Z" fill="black"/>
</svg>
