<svg width="37" height="38" viewBox="0 0 37 38" fill="none" xmlns="http://www.w3.org/2000/svg">
<path d="M35.2656 23.0469H1.73438C1.58105 23.0469 1.434 22.986 1.32558 22.8775C1.21716 22.7691 1.15625 22.6221 1.15625 22.4688V20.1562C1.15609 20.0779 1.17203 20.0004 1.20308 19.9285L2.93745 15.8816C2.98202 15.7776 3.05612 15.689 3.15056 15.6267C3.245 15.5645 3.35563 15.5313 3.46875 15.5312H13.875C14.0283 15.5312 14.1754 15.5922 14.2838 15.7006C14.3922 15.809 14.4531 15.956 14.4531 16.1094C14.4531 16.2627 14.3922 16.4098 14.2838 16.5182C14.1754 16.6266 14.0283 16.6875 13.875 16.6875H3.84974L2.3125 20.2748V21.8906H34.6875V20.2719L33.1503 16.6875H23.125C22.9717 16.6875 22.8246 16.6266 22.7162 16.5182C22.6078 16.4098 22.5469 16.2627 22.5469 16.1094C22.5469 15.956 22.6078 15.809 22.7162 15.7006C22.8246 15.5922 22.9717 15.5312 23.125 15.5312H33.5313C33.6444 15.5313 33.755 15.5645 33.8494 15.6267C33.9439 15.689 34.018 15.7776 34.0625 15.8816L35.7969 19.9285C35.828 20.0004 35.8439 20.0779 35.8438 20.1562V22.4688C35.8438 22.6221 35.7828 22.7691 35.6744 22.8775C35.566 22.986 35.419 23.0469 35.2656 23.0469Z" fill="black"/>
<path d="M18.5 19.5781C17.7336 19.5772 16.9989 19.2724 16.457 18.7305C15.9151 18.1886 15.6103 17.4539 15.6094 16.6875C15.6094 15.6891 17.238 10.9062 18.5 10.9062C19.762 10.9062 21.3906 15.6891 21.3906 16.6875C21.3897 17.4539 21.0849 18.1886 20.543 18.7305C20.0011 19.2724 19.2664 19.5772 18.5 19.5781ZM18.5 12.2423C17.9161 13.0829 16.7656 15.7215 16.7656 16.6875C16.7656 17.1475 16.9484 17.5886 17.2736 17.9139C17.5989 18.2391 18.04 18.4219 18.5 18.4219C18.96 18.4219 19.4011 18.2391 19.7264 17.9139C20.0516 17.5886 20.2344 17.1475 20.2344 16.6875C20.2344 15.7215 19.0839 13.0829 18.5 12.2423Z" fill="black"/>
<path d="M17.9219 17.2656C18.2412 17.2656 18.5 17.0068 18.5 16.6875C18.5 16.3682 18.2412 16.1094 17.9219 16.1094C17.6026 16.1094 17.3438 16.3682 17.3438 16.6875C17.3438 17.0068 17.6026 17.2656 17.9219 17.2656Z" fill="black"/>
<path d="M18.5 15.5312C18.8193 15.5312 19.0781 15.2724 19.0781 14.9531C19.0781 14.6338 18.8193 14.375 18.5 14.375C18.1807 14.375 17.9219 14.6338 17.9219 14.9531C17.9219 15.2724 18.1807 15.5312 18.5 15.5312Z" fill="black"/>
<path d="M18.5 32.875C17.7336 32.8741 16.9989 32.5692 16.457 32.0273C15.9151 31.4854 15.6103 30.7507 15.6094 29.9844C15.6094 28.986 17.238 24.2031 18.5 24.2031C19.762 24.2031 21.3906 28.986 21.3906 29.9844C21.3897 30.7507 21.0849 31.4854 20.543 32.0273C20.0011 32.5692 19.2664 32.8741 18.5 32.875ZM18.5 25.5392C17.9161 26.3798 16.7656 29.0183 16.7656 29.9844C16.7656 30.4444 16.9484 30.8855 17.2736 31.2108C17.5989 31.536 18.04 31.7188 18.5 31.7188C18.96 31.7188 19.4011 31.536 19.7264 31.2108C20.0516 30.8855 20.2344 30.4444 20.2344 29.9844C20.2344 29.0183 19.0839 26.3798 18.5 25.5392Z" fill="black"/>
<path d="M8.09375 28.8281C7.32739 28.8272 6.59268 28.5224 6.05078 27.9805C5.50888 27.4386 5.20404 26.7039 5.20312 25.9375C5.25044 25.2776 5.39842 24.6287 5.64192 24.0135C5.66477 23.9393 5.70234 23.8704 5.75239 23.811C5.80243 23.7517 5.86393 23.703 5.93321 23.6679C6.00249 23.6328 6.07813 23.612 6.15562 23.6068C6.2331 23.6016 6.31085 23.612 6.38421 23.6375C6.45757 23.663 6.52504 23.703 6.58259 23.7551C6.64015 23.8073 6.68661 23.8705 6.71921 23.941C6.7518 24.0115 6.76986 24.0878 6.7723 24.1654C6.77474 24.243 6.76152 24.3204 6.73342 24.3928C6.5398 24.8885 6.41398 25.4081 6.35938 25.9375C6.35938 26.3975 6.5421 26.8386 6.86736 27.1639C7.19262 27.4892 7.63377 27.6719 8.09375 27.6719C8.55373 27.6719 8.99488 27.4892 9.32014 27.1639C9.6454 26.8386 9.82812 26.3975 9.82812 25.9375C9.77352 25.4081 9.6477 24.8885 9.45408 24.3928C9.42598 24.3204 9.41276 24.243 9.4152 24.1654C9.41764 24.0878 9.4357 24.0115 9.46829 23.941C9.50089 23.8705 9.54735 23.8073 9.60491 23.7551C9.66246 23.703 9.72993 23.663 9.80329 23.6375C9.87665 23.612 9.9544 23.6016 10.0319 23.6068C10.1094 23.612 10.185 23.6328 10.2543 23.6679C10.3236 23.703 10.3851 23.7517 10.4351 23.811C10.4852 23.8704 10.5227 23.9393 10.5456 24.0135C10.7891 24.6287 10.9371 25.2776 10.9844 25.9375C10.9835 26.7039 10.6786 27.4386 10.1367 27.9805C9.59482 28.5224 8.86011 28.8272 8.09375 28.8281Z" fill="black"/>
<path d="M30.0625 28.8281C29.2961 28.8272 28.5614 28.5224 28.0195 27.9805C27.4776 27.4386 27.1728 26.7039 27.1719 25.9375C27.2192 25.2776 27.3672 24.6287 27.6107 24.0135C27.6335 23.9393 27.6711 23.8704 27.7211 23.811C27.7712 23.7517 27.8327 23.703 27.902 23.6679C27.9712 23.6328 28.0469 23.612 28.1244 23.6068C28.2019 23.6016 28.2796 23.612 28.353 23.6375C28.4263 23.663 28.4938 23.703 28.5513 23.7551C28.6089 23.8073 28.6554 23.8705 28.688 23.941C28.7206 24.0115 28.7386 24.0878 28.7411 24.1654C28.7435 24.243 28.7303 24.3204 28.7022 24.3928C28.5085 24.8885 28.3827 25.4081 28.3281 25.9375C28.3281 26.3975 28.5109 26.8386 28.8361 27.1639C29.1614 27.4892 29.6025 27.6719 30.0625 27.6719C30.5225 27.6719 30.9636 27.4892 31.2889 27.1639C31.6141 26.8386 31.7969 26.3975 31.7969 25.9375C31.7423 25.4081 31.6165 24.8885 31.4228 24.3928C31.3947 24.3204 31.3815 24.243 31.384 24.1654C31.3864 24.0878 31.4044 24.0115 31.437 23.941C31.4696 23.8705 31.5161 23.8073 31.5737 23.7551C31.6312 23.703 31.6987 23.663 31.772 23.6375C31.8454 23.612 31.9231 23.6016 32.0006 23.6068C32.0781 23.612 32.1538 23.6328 32.223 23.6679C32.2923 23.703 32.3538 23.7517 32.4039 23.811C32.4539 23.8704 32.4915 23.9393 32.5143 24.0135C32.7578 24.6287 32.9058 25.2776 32.9531 25.9375C32.9522 26.7039 32.6474 27.4386 32.1055 27.9805C31.5636 28.5224 30.8289 28.8272 30.0625 28.8281Z" fill="black"/>
<path d="M29.4844 13.7969C28.718 13.796 27.9833 13.4911 27.4414 12.9492C26.8995 12.4073 26.5947 11.6726 26.5938 10.9062C26.5938 9.90783 28.2223 5.125 29.4844 5.125C30.7464 5.125 32.375 9.90783 32.375 10.9062C32.3741 11.6726 32.0692 12.4073 31.5273 12.9492C30.9854 13.4911 30.2507 13.796 29.4844 13.7969ZM29.4844 6.46105C28.9005 7.30164 27.75 9.9402 27.75 10.9062C27.75 11.3662 27.9327 11.8074 28.258 12.1326C28.5832 12.4579 29.0244 12.6406 29.4844 12.6406C29.9444 12.6406 30.3855 12.4579 30.7108 12.1326C31.036 11.8074 31.2188 11.3662 31.2188 10.9062C31.2188 9.9402 30.0683 7.30164 29.4844 6.46105Z" fill="black"/>
<path d="M30.0625 12.0625C30.3818 12.0625 30.6406 11.8037 30.6406 11.4844C30.6406 11.1651 30.3818 10.9062 30.0625 10.9062C29.7432 10.9062 29.4844 11.1651 29.4844 11.4844C29.4844 11.8037 29.7432 12.0625 30.0625 12.0625Z" fill="black"/>
<path d="M28.9062 10.9062C29.2255 10.9062 29.4844 10.6474 29.4844 10.3281C29.4844 10.0088 29.2255 9.75 28.9062 9.75C28.587 9.75 28.3281 10.0088 28.3281 10.3281C28.3281 10.6474 28.587 10.9062 28.9062 10.9062Z" fill="black"/>
<path d="M29.4844 9.75C29.8037 9.75 30.0625 9.49116 30.0625 9.17188C30.0625 8.85259 29.8037 8.59375 29.4844 8.59375C29.1651 8.59375 28.9062 8.85259 28.9062 9.17188C28.9062 9.49116 29.1651 9.75 29.4844 9.75Z" fill="black"/>
<path d="M8.09375 13.7969C7.32739 13.796 6.59268 13.4911 6.05078 12.9492C5.50888 12.4073 5.20404 11.6726 5.20312 10.9062C5.20312 9.90783 6.8317 5.125 8.09375 5.125C9.3558 5.125 10.9844 9.90783 10.9844 10.9062C10.9835 11.6726 10.6786 12.4073 10.1367 12.9492C9.59482 13.4911 8.86011 13.796 8.09375 13.7969ZM8.09375 6.46105C7.50984 7.30164 6.35938 9.9402 6.35938 10.9062C6.35938 11.3662 6.5421 11.8074 6.86736 12.1326C7.19262 12.4579 7.63377 12.6406 8.09375 12.6406C8.55373 12.6406 8.99488 12.4579 9.32014 12.1326C9.6454 11.8074 9.82812 11.3662 9.82812 10.9062C9.82812 9.9402 8.67766 7.30164 8.09375 6.46105Z" fill="black"/>
<path d="M7.51562 12.0625C7.83491 12.0625 8.09375 11.8037 8.09375 11.4844C8.09375 11.1651 7.83491 10.9062 7.51562 10.9062C7.19634 10.9062 6.9375 11.1651 6.9375 11.4844C6.9375 11.8037 7.19634 12.0625 7.51562 12.0625Z" fill="black"/>
<path d="M8.67188 10.9062C8.99116 10.9062 9.25 10.6474 9.25 10.3281C9.25 10.0088 8.99116 9.75 8.67188 9.75C8.35259 9.75 8.09375 10.0088 8.09375 10.3281C8.09375 10.6474 8.35259 10.9062 8.67188 10.9062Z" fill="black"/>
<path d="M8.09375 9.17188C8.41304 9.17188 8.67188 8.91304 8.67188 8.59375C8.67188 8.27446 8.41304 8.01562 8.09375 8.01562C7.77446 8.01562 7.51562 8.27446 7.51562 8.59375C7.51562 8.91304 7.77446 9.17188 8.09375 9.17188Z" fill="black"/>
</svg>
